<svg 
	xmlns="http://www.w3.org/2000/svg">
		

	<symbol id="marathon1" viewBox="0 0 512 512">
		<g>
	<g>
		<g>
			<path d="M512,187.733C512,84.215,427.785,0,324.267,0C236.435,0,162.51,60.632,142.12,142.236
				C59.452,162.914,0,238.589,0,324.267C0,427.785,84.215,512,187.733,512c85.675,0,161.347-59.448,182.029-142.119
				C451.367,349.491,512,275.566,512,187.733z M187.733,494.933c-94.106,0-170.667-76.561-170.667-170.667
				c0-75.16,50.318-141.857,121.386-163.319c-0.871,6.067-1.451,12.226-1.725,18.464c-0.893,0.315-1.788,0.624-2.673,0.954
				c-4.403,1.655-6.639,6.571-4.992,10.991c1.251,3.322,4.362,5.396,7.696,5.515c1.166,24.202,6.932,47.218,16.448,68.186
				c-5.279,7.251-8.14,15.962-8.14,25.075c0,20.605,14.682,37.844,34.133,41.808v50.59c-9.931-3.523-17.067-13.009-17.067-24.132
				c0-4.71-3.814-8.533-8.533-8.533c-4.719,0-8.533,3.823-8.533,8.533c0,20.605,14.682,37.844,34.133,41.808v9.392
				c0,4.71,3.814,8.533,8.533,8.533s8.533-3.823,8.533-8.533v-9.392c19.451-3.964,34.133-21.203,34.133-41.808
				c0-2.966-0.306-5.861-0.884-8.657c25.357,14.887,54.493,23.997,85.597,25.498c0.12,3.342,2.207,6.444,5.534,7.693
				c0.99,0.367,2.005,0.546,2.995,0.546c3.456,0,6.707-2.116,7.996-5.547c0.33-0.881,0.636-1.772,0.948-2.66
				c6.241-0.274,12.402-0.855,18.471-1.726C329.583,444.608,262.893,494.933,187.733,494.933z M196.267,334.268
				c9.931,3.523,17.067,13.009,17.067,24.132s-7.135,20.608-17.067,24.132V334.268z M179.2,314.265
				c-9.931-3.523-17.067-13.009-17.067-24.132c0-2.207,0.285-4.374,0.827-6.461c4.842,8.11,10.27,15.83,16.24,23.091V314.265z
				 M362.027,354.183c-0.762,0.06-1.5,0.228-2.204,0.481c-10.465,2.227-21.281,3.491-32.352,3.696
				c-0.799-0.104-1.593-0.089-2.365,0.03c-0.28,0.001-0.559,0.011-0.84,0.011c-94.106,0-170.667-76.561-170.667-170.667
				c0-0.31,0.01-0.618,0.012-0.928c0.105-0.727,0.119-1.473,0.028-2.224c0.203-11.12,1.474-21.982,3.715-32.491
				c0.229-0.659,0.387-1.346,0.448-2.054c17.208-76.027,85.308-132.969,166.463-132.969c94.106,0,170.667,76.561,170.667,170.667
				C494.933,268.866,438.023,336.951,362.027,354.183z"></path>
			<path d="M179.094,181.218c0.299,0.034,0.589,0.043,0.879,0.043c4.318,0,8.03-3.268,8.482-7.654
				c0.563-5.427,1.451-10.837,2.645-16.085c1.05-4.599-1.826-9.173-6.417-10.223c-4.651-1.058-9.173,1.835-10.214,6.426
				c-1.348,5.922-2.364,12.015-2.995,18.133C170.988,176.542,174.401,180.732,179.094,181.218z"></path>
			<path d="M212.698,266.347c-2.714-3.849-8.03-4.762-11.887-2.048c-3.857,2.722-4.77,8.047-2.048,11.895
				c3.516,4.975,7.373,9.796,11.46,14.327c1.681,1.869,4.002,2.825,6.332,2.825c2.048,0,4.087-0.725,5.717-2.202
				c3.499-3.157,3.78-8.55,0.623-12.049C219.261,275.059,215.83,270.776,212.698,266.347z"></path>
			<path d="M190.333,214.251c-0.896-4.625-5.427-7.646-10.01-6.741c-4.625,0.905-7.637,5.385-6.741,10.01
				c1.169,5.973,2.731,11.964,4.634,17.801c1.178,3.601,4.514,5.888,8.107,5.888c0.879,0,1.766-0.137,2.654-0.427
				c4.48-1.468,6.921-6.281,5.461-10.761C192.739,224.841,191.365,219.541,190.333,214.251z"></path>
			<path d="M352.346,54.106c5.325,1.118,10.624,2.569,15.744,4.309c0.922,0.307,1.843,0.461,2.748,0.461
				c3.558,0,6.878-2.236,8.09-5.794c1.51-4.463-0.879-9.31-5.333-10.82c-5.777-1.963-11.742-3.601-17.724-4.855
				c-4.591-0.99-9.148,1.98-10.112,6.596C344.794,48.61,347.738,53.133,352.346,54.106z"></path>
			<path d="M293.833,54.413c0.589,0,1.195-0.06,1.801-0.188c5.291-1.135,10.718-1.963,16.128-2.449
				c4.685-0.427,8.149-4.582,7.723-9.276c-0.435-4.693-4.497-8.115-9.276-7.723c-6.084,0.555-12.194,1.485-18.159,2.756
				c-4.608,0.99-7.543,5.521-6.554,10.129C286.358,51.674,289.891,54.413,293.833,54.413z"></path>
			<path d="M194.284,122.782c1.34,0.777,2.807,1.143,4.258,1.143c2.953,0,5.82-1.527,7.398-4.267
				c2.714-4.693,5.734-9.276,8.994-13.619c2.825-3.772,2.057-9.122-1.715-11.947c-3.789-2.842-9.122-2.057-11.955,1.715
				c-3.644,4.881-7.049,10.035-10.103,15.317C188.797,115.204,190.196,120.427,194.284,122.782z"></path>
			<path d="M438.055,278.02c-3.49-3.14-8.9-2.85-12.049,0.666c-3.635,4.053-7.535,7.919-11.588,11.494
				c-3.533,3.123-3.874,8.508-0.759,12.049c1.681,1.911,4.045,2.893,6.4,2.893c2.005,0,4.019-0.7,5.641-2.133
				c4.565-4.019,8.943-8.371,13.022-12.919C441.87,286.562,441.562,281.161,438.055,278.02z"></path>
			<path d="M457.494,138.893c1.135,0,2.27-0.222,3.371-0.7c4.326-1.86,6.323-6.886,4.471-11.213
				c-2.398-5.555-5.18-11.068-8.277-16.384c-2.381-4.07-7.603-5.444-11.674-3.072c-4.07,2.364-5.444,7.595-3.081,11.665
				c2.765,4.727,5.231,9.617,7.347,14.541C451.043,136.956,454.192,138.893,457.494,138.893z"></path>
			<path d="M422.627,89.732c2.287,0,4.582-0.922,6.263-2.748c3.2-3.456,2.987-8.858-0.478-12.058
				c-4.48-4.147-9.25-8.055-14.191-11.631c-3.831-2.765-9.165-1.92-11.913,1.903c-2.765,3.814-1.92,9.148,1.903,11.913
				c4.386,3.183,8.627,6.665,12.621,10.351C418.471,88.981,420.553,89.732,422.627,89.732z"></path>
			<path d="M465.021,223.979c-4.48-1.451-9.293,1.015-10.743,5.504c-1.664,5.154-3.652,10.274-5.931,15.206
				c-1.971,4.284-0.094,9.353,4.19,11.324c1.143,0.529,2.364,0.777,3.558,0.777c3.234,0,6.315-1.835,7.757-4.958
				c2.56-5.555,4.796-11.315,6.673-17.118C471.967,230.225,469.501,225.421,465.021,223.979z"></path>
			<path d="M476.984,171.217c-0.503-4.676-4.642-8.03-9.395-7.569c-4.693,0.503-8.073,4.71-7.569,9.395
				c0.512,4.855,0.777,9.796,0.777,14.694l-0.009,1.587c-0.06,4.71,3.695,8.585,8.414,8.661h0.119c4.659,0,8.474-3.738,8.533-8.414
				l0.009-1.835C477.863,182.234,477.565,176.678,476.984,171.217z"></path>
			<path d="M257.609,68.612c4.105-2.313,5.564-7.509,3.26-11.622c-2.313-4.113-7.518-5.572-11.631-3.26
				c-5.308,2.987-10.487,6.323-15.42,9.924c-3.806,2.782-4.634,8.124-1.86,11.921c1.673,2.295,4.267,3.507,6.903,3.507
				c1.741,0,3.507-0.538,5.018-1.647C248.265,74.227,252.882,71.266,257.609,68.612z"></path>
			<path d="M324.263,324.271c-5.427,0-10.914-0.333-16.299-0.973c-4.693-0.521-8.926,2.79-9.481,7.467
				c-0.563,4.685,2.782,8.926,7.467,9.489c6.05,0.717,12.22,1.084,18.313,1.084h0.597c4.71,0,8.243-3.823,8.243-8.533
				C333.104,328.085,328.982,324.271,324.263,324.271z"></path>
			<path d="M268.797,312.486c-4.924-2.202-9.796-4.745-14.481-7.543c-4.036-2.415-9.284-1.109-11.708,2.944
				c-2.415,4.045-1.101,9.284,2.944,11.699c5.265,3.149,10.743,6.008,16.282,8.482c1.135,0.503,2.313,0.742,3.473,0.742
				c3.268,0,6.383-1.877,7.799-5.06C275.034,319.45,273.097,314.406,268.797,312.486z"></path>
			<path d="M380.259,312.247c-4.932,2.227-10.061,4.181-15.249,5.811c-4.497,1.417-6.997,6.204-5.581,10.692
				c1.135,3.652,4.506,5.99,8.141,5.99c0.836,0,1.707-0.137,2.551-0.401c5.837-1.826,11.614-4.028,17.152-6.528
				c4.301-1.946,6.212-6.997,4.267-11.298C389.612,312.23,384.551,310.302,380.259,312.247z"></path>
			<path d="M332.8,180.059v-50.59c9.931,3.523,17.067,13.009,17.067,24.132c0,4.71,3.814,8.533,8.533,8.533s8.533-3.823,8.533-8.533
				c0-20.605-14.682-37.844-34.133-41.808V102.4c0-4.71-3.814-8.533-8.533-8.533s-8.533,3.823-8.533,8.533v9.392
				c-19.451,3.964-34.133,21.203-34.133,41.808c0,20.605,14.682,37.844,34.133,41.808v50.59
				c-9.931-3.523-17.067-13.009-17.067-24.132c0-4.71-3.814-8.533-8.533-8.533s-8.533,3.823-8.533,8.533
				c0,20.605,14.682,37.844,34.133,41.808v9.392c0,4.71,3.814,8.533,8.533,8.533s8.533-3.823,8.533-8.533v-9.392
				c19.451-3.964,34.133-21.203,34.133-41.808C366.933,201.262,352.251,184.023,332.8,180.059z M298.667,153.6
				c0-11.123,7.135-20.608,17.067-24.132v48.263C305.802,174.208,298.667,164.723,298.667,153.6z M332.8,245.998v-48.263
				c9.931,3.523,17.067,13.009,17.067,24.132S342.731,242.475,332.8,245.998z"></path>
			<path d="M46.49,290.077c0.836,0.256,1.672,0.375,2.492,0.375c3.661,0,7.04-2.372,8.158-6.05c1.724-5.649,3.857-11.273,6.34-16.7
				c1.954-4.284,0.068-9.353-4.224-11.307c-4.292-1.963-9.344-0.068-11.298,4.216c-2.79,6.11-5.197,12.442-7.134,18.816
				C39.45,283.933,41.984,288.703,46.49,290.077z"></path>
			<path d="M102.647,206.561c-2.987-3.661-8.363-4.198-12.006-1.212c-5.18,4.241-10.129,8.858-14.711,13.722
				c-3.217,3.43-3.055,8.832,0.367,12.066c1.656,1.545,3.755,2.313,5.854,2.313c2.27,0,4.531-0.896,6.221-2.688
				c4.062-4.326,8.465-8.431,13.073-12.194C105.088,215.581,105.634,210.205,102.647,206.561z"></path>
			<path d="M52.997,346.455c-0.956-5.862-1.536-11.844-1.724-17.784c-0.145-4.719-4.198-8.414-8.798-8.26
				c-4.71,0.145-8.405,4.079-8.269,8.789c0.222,6.69,0.87,13.423,1.963,20.019c0.683,4.181,4.301,7.151,8.405,7.151
				c0.461,0,0.922-0.034,1.391-0.111C50.616,355.492,53.765,351.106,52.997,346.455z"></path>
			<path d="M67.325,388.593c-2.236-4.139-7.364-5.717-11.554-3.473c-4.156,2.227-5.709,7.398-3.482,11.554
				c3.149,5.862,6.733,11.605,10.641,17.05c1.673,2.321,4.284,3.558,6.946,3.558c1.724,0,3.456-0.521,4.966-1.596
				c3.823-2.748,4.71-8.081,1.954-11.913C73.315,398.918,70.124,393.815,67.325,388.593z"></path>
			<path d="M305.405,409.371c-3.652-2.978-9.028-2.432-11.998,1.22c-3.738,4.591-7.851,8.986-12.203,13.073
				c-3.43,3.234-3.584,8.627-0.367,12.066c1.69,1.783,3.951,2.688,6.221,2.688c2.099,0,4.198-0.768,5.854-2.321
				c4.89-4.599,9.506-9.549,13.713-14.711C309.612,417.725,309.065,412.358,305.405,409.371z"></path>
			<path d="M244.255,448.539c-5.376,2.466-10.999,4.599-16.7,6.332c-4.506,1.382-7.049,6.153-5.666,10.658
				c1.118,3.678,4.506,6.042,8.158,6.042c0.828,0,1.664-0.119,2.492-0.367c6.417-1.963,12.749-4.369,18.816-7.142
				c4.284-1.963,6.17-7.031,4.215-11.315C253.599,448.463,248.547,446.551,244.255,448.539z"></path>
			<path d="M123.482,444.716c-5.231-2.807-10.342-5.99-15.172-9.455c-3.831-2.756-9.156-1.877-11.913,1.954
				c-2.748,3.831-1.869,9.165,1.963,11.913c5.436,3.9,11.17,7.475,17.058,10.624c1.28,0.691,2.662,1.015,4.019,1.015
				c3.046,0,5.999-1.638,7.535-4.506C129.2,452.106,127.63,446.935,123.482,444.716z"></path>
			<path d="M183.421,460.733c-5.982-0.188-11.972-0.768-17.801-1.724c-4.685-0.768-9.037,2.398-9.805,7.049
				c-0.759,4.642,2.389,9.037,7.049,9.796c6.562,1.075,13.295,1.732,20.011,1.937c0.102,0.009,0.188,0.009,0.282,0.009
				c4.582,0,8.38-3.644,8.516-8.26C191.826,464.829,188.131,460.887,183.421,460.733z"></path>
		</g>
	</g>
</g>
	</symbol>





<!-- ********************************     ВТОРОЙ  -->




	<symbol id="marathon2" viewBox="0 0 59.65 59.65">
<g>
	<path d="M35.033,49.65c-1.93,0-3.5,1.57-3.5,3.5s1.57,3.5,3.5,3.5s3.5-1.57,3.5-3.5S36.963,49.65,35.033,49.65z M35.033,54.65
		c-0.827,0-1.5-0.673-1.5-1.5s0.673-1.5,1.5-1.5s1.5,0.673,1.5,1.5S35.861,54.65,35.033,54.65z"></path>
	<path d="M13.568,21.211l3.535,3.535c0.195,0.195,0.451,0.293,0.707,0.293s0.512-0.098,0.707-0.293c0.391-0.391,0.391-1.023,0-1.414
		l-2.192-2.192c1.101-1.665,1.101-3.85,0-5.515l4.384-4.385c1.621,1.078,3.893,1.078,5.516,0l2.192,2.192
		c0.391,0.391,1.023,0.391,1.414,0s0.391-1.023,0-1.414l-3.536-3.536l-0.707,0.707c-1.134,1.133-3.109,1.133-4.243,0l-0.707-0.707
		l-7.071,7.071l0.707,0.707c1.169,1.17,1.169,3.073,0,4.243L13.568,21.211z"></path>
	<path d="M43.337,28.353c-1.101,1.665-1.101,3.85,0,5.515l-4.384,4.385c-1.623-1.079-3.895-1.079-5.516,0l-2.192-2.192
		c-0.391-0.391-1.023-0.391-1.414,0s-0.391,1.023,0,1.414l3.536,3.536l0.707-0.707c1.134-1.134,3.109-1.132,4.243,0l0.707,0.707
		l7.071-7.071l-0.707-0.707c-1.169-1.17-1.169-3.073,0-4.243l0.707-0.707l-3.535-3.535c-0.391-0.391-1.023-0.391-1.414,0
		s-0.391,1.023,0,1.414L43.337,28.353z"></path>
	<circle cx="47.509" cy="31.11" r="1"></circle>
	<circle cx="36.195" cy="42.424" r="1"></circle>
	<path d="M24.174,7.776c0.391-0.391,0.758-1.024,0.368-1.414c-0.391-0.391-1.024-0.391-1.414,0
		c-0.391,0.391-0.758,1.024-0.368,1.414C23.151,8.166,23.784,8.166,24.174,7.776z"></path>
	<circle cx="12.154" cy="18.382" r="1"></circle>
	<path d="M51.533,37.15c0-0.88-0.143-1.744-0.413-2.58l3.455-3.455l-4.555-4.612c0.943-0.84,1.513-2.05,1.513-3.353
		c0-2.481-2.019-4.5-4.5-4.5c-0.182,0-0.362,0.018-0.54,0.04c0.022-0.178,0.04-0.357,0.04-0.54c0-2.481-2.019-4.5-4.5-4.5
		c-0.182,0-0.362,0.018-0.54,0.04c0.022-0.178,0.04-0.357,0.04-0.54c0-2.481-2.019-4.5-4.5-4.5c-0.182,0-0.362,0.018-0.54,0.04
		c0.022-0.178,0.04-0.357,0.04-0.54c0-2.607-1.738-4.5-4.132-4.5c-1.308,0-2.628,0.566-3.544,1.422L23.847,0L5.075,18.374
		l9.243,9.244c-0.494,0.722-0.784,1.593-0.784,2.532c0,1.564,0.804,2.942,2.019,3.748c0.06,0.08,0.132,0.161,0.226,0.241
		l10.755,10.715v1.796h-2v13h18h8v-13h-2v-3.029C50.447,42,51.533,39.669,51.533,37.15z M15.533,30.15
		c0-0.657,0.26-1.251,0.675-1.697l0.153-0.14c0.348-0.318,0.766-0.528,1.207-0.616c0.151-0.029,0.305-0.047,0.464-0.047h2.201h7.799
		c1.378,0,2.5,1.121,2.5,2.5c0,0.162-0.018,0.319-0.048,0.473c-0.211,1.052-1.11,1.892-2.22,1.999l-0.297,0.028h-5.79h-2.828h-1.317
		C16.655,32.65,15.533,31.529,15.533,30.15z M24.175,19.089c3.119-3.119,8.194-3.119,11.313,0c1.511,1.511,2.343,3.521,2.343,5.657
		s-0.832,4.146-2.343,5.657c-1.005,1.005-2.252,1.709-3.598,2.065c0.108-0.179,0.202-0.367,0.285-0.561
		c0.005-0.012,0.008-0.026,0.014-0.038c0.095-0.229,0.166-0.469,0.223-0.715c0.015-0.064,0.028-0.127,0.04-0.191
		c0.048-0.265,0.082-0.534,0.082-0.813c0-2.481-2.019-4.5-4.5-4.5h-6.145C21.611,23.232,22.437,20.827,24.175,19.089z M49.533,23.15
		c0,0.758-0.347,1.462-0.919,1.928l-3.488-3.532c0.468-0.557,1.159-0.897,1.907-0.897C48.412,20.65,49.533,21.771,49.533,23.15z
		 M44.533,18.15c0,0.743-0.337,1.43-0.888,1.897l-3.488-3.532c0.467-0.537,1.143-0.866,1.876-0.866
		C43.412,15.65,44.533,16.771,44.533,18.15z M39.533,13.15c0,0.727-0.326,1.4-0.857,1.866l-3.488-3.531
		c0.466-0.517,1.127-0.834,1.844-0.834C38.412,10.65,39.533,11.771,39.533,13.15z M32.401,5.65c1.473,0,2.132,1.256,2.132,2.5
		c0,0.712-0.314,1.369-0.825,1.834l-3.45-3.493C30.802,5.998,31.618,5.65,32.401,5.65z M23.823,2.822l3.904,3.952L27.641,6.97l5,5
		l0.573,0.573l4.427,4.427l0.573,0.573l4.427,4.427l0.573,0.573l5,5l0.016-0.007l3.526,3.57L36.212,46.65h-0.033l-12-12h3.854
		c0.102,0,0.198-0.023,0.299-0.03c0.498,0.076,0.997,0.117,1.494,0.117c2.633,0,5.193-1.038,7.075-2.92
		c1.889-1.889,2.929-4.4,2.929-7.071s-1.04-5.183-2.929-7.071c-3.898-3.898-10.243-3.898-14.142,0
		c-2.119,2.119-3.152,5.031-2.88,7.976h-1.847c-0.264,0-0.523,0.032-0.78,0.079c-0.083,0.015-0.165,0.031-0.246,0.05
		c-0.186,0.045-0.368,0.102-0.546,0.17c-0.155,0.058-0.303,0.128-0.449,0.203c-0.073,0.038-0.149,0.069-0.22,0.11L7.919,18.39
		L23.823,2.822z M28.181,43.634c-0.045-0.039-0.092-0.074-0.18-0.14l-8.877-8.844h2.227l12,12h-4.817v-2.718L28.181,43.634z
		 M26.533,57.65v-9h7.678h0.747c0.139,0,0.276,0.011,0.412,0.021l0.824,0.824l0.547-0.547c2.201,0.746,3.791,2.827,3.791,5.276
		v3.426H26.533z M48.533,57.65h-6v-3.426c0-2.206-0.954-4.189-2.464-5.574h8.464V57.65z M39.04,46.65l3.729-3.729l6.697-6.697
		c0.045,0.306,0.067,0.614,0.067,0.926c0,2.055-0.948,3.947-2.602,5.191l-0.398,0.3v4.009H39.04z"></path>
</g>
	</symbol>




	<!--******************************************   ТРЕТИЙ -->




<symbol id="marathon3" viewBox="0 0 60 60">
	<path d="M3.19 26.213a3.189 3.189 0 0 0-2.9 4.508l3.92 8.621a10.645 10.645 0 0 0 2.171 3.134l6.164 6.163A1.989 1.989 0 0 0 12 50v8a2 2 0 0 0 2 2h11a2 2 0 0 0 2-2v-8a2 2 0 0 0-2-2v-1.861a10.483 10.483 0 0 0-2.191-6.55 7.2 7.2 0 0 0-3.334-2.431 19.78 19.78 0 0 1-5.724-3.674 4.614 4.614 0 0 0-5.472-.3l-2.158-5.038a3.185 3.185 0 0 0-2.931-1.933zM25 58H14v-8h11v8zM6.52 34.151a11.826 11.826 0 0 0 2.521 3.725l4.569 4.569a1 1 0 1 0 1.414-1.414l-4.569-4.569a9.857 9.857 0 0 1-1.232-1.5 2.6 2.6 0 0 1 3.24.054 21.307 21.307 0 0 0 6.379 4.04c.956.348 1.79.968 2.4 1.783a8.48 8.48 0 0 1 1.758 5.3V48h-8.269l-6.938-6.938a8.661 8.661 0 0 1-1.765-2.547l-3.92-8.621a1.189 1.189 0 1 1 2.175-.96l2.237 5.217z"></path><path d="M22 53h-1a1 1 0 0 0 0 2h1a1 1 0 0 0 0-2zM55.792 39.343l3.92-8.622a3.188 3.188 0 1 0-5.833-2.575l-2.158 5.035a4.609 4.609 0 0 0-5.471.3 19.8 19.8 0 0 1-5.725 3.674 7.2 7.2 0 0 0-3.334 2.431A10.483 10.483 0 0 0 35 46.139V48a2 2 0 0 0-2 2v8a2 2 0 0 0 2 2h11a2 2 0 0 0 2-2v-8a1.989 1.989 0 0 0-.543-1.361l6.164-6.163a10.654 10.654 0 0 0 2.171-3.133zM46 58H35v-8h11v8zm-.731-10H37v-1.861a8.48 8.48 0 0 1 1.754-5.3 5.235 5.235 0 0 1 2.4-1.783 21.321 21.321 0 0 0 6.38-4.04 2.6 2.6 0 0 1 3.238-.053 9.832 9.832 0 0 1-1.231 1.5l-4.569 4.569a1 1 0 0 0 1.414 1.414l4.569-4.569a11.826 11.826 0 0 0 2.521-3.725l2.237-5.218a1.187 1.187 0 0 1 2.092-.175c.218.34.25.767.083 1.135l-3.92 8.622a8.661 8.661 0 0 1-1.765 2.547L45.269 48z"></path><path d="M39 53h-1a1 1 0 0 0 0 2h1a1 1 0 0 0 0-2zM39.5 35.455c.032-.026.063-.053.093-.082a19.123 19.123 0 0 0 6.741-6.717.984.984 0 0 0 .121-.156.816.816 0 0 0 .032-.095 18.856 18.856 0 0 0 0-18.81.816.816 0 0 0-.032-.1.929.929 0 0 0-.083-.094 19.127 19.127 0 0 0-6.779-6.779 1.211 1.211 0 0 0-.093-.082c-.03-.017-.063-.017-.094-.031a18.853 18.853 0 0 0-18.812 0 .8.8 0 0 0-.094.031 1.211 1.211 0 0 0-.093.082 19.118 19.118 0 0 0-6.779 6.779.929.929 0 0 0-.083.094.816.816 0 0 0-.032.1 18.856 18.856 0 0 0 0 18.81c.009.032.02.064.032.095a.984.984 0 0 0 .121.156 19.123 19.123 0 0 0 6.741 6.717c.03.029.06.056.093.082a.909.909 0 0 0 .13.053 18.862 18.862 0 0 0 18.74 0 .909.909 0 0 0 .13-.053zm-.155-2.269l-1-1.73a15.109 15.109 0 0 0 4.11-4.11l1.73 1a17.13 17.13 0 0 1-4.84 4.84zM13.051 20h2c.127 1.95.636 3.855 1.5 5.608l-1.734 1A16.841 16.841 0 0 1 13.051 20zm1.769-8.609l1.734 1A14.871 14.871 0 0 0 15.051 18h-2c.131-2.3.733-4.55 1.769-6.609zM17 19c0-7.18 5.82-13 13-13s13 5.82 13 13-5.82 13-13 13c-7.176-.008-12.992-5.824-13-13zM31 4.051v-2c2.3.131 4.55.733 6.609 1.769l-1 1.734A14.871 14.871 0 0 0 31 4.051zm-2 0c-1.95.127-3.855.636-5.608 1.5l-1-1.734A16.841 16.841 0 0 1 29 2.051v2zM46.949 18h-2a14.871 14.871 0 0 0-1.5-5.608l1.734-1A16.841 16.841 0 0 1 46.949 18zm-1.769 8.609l-1.734-1A14.871 14.871 0 0 0 44.949 20h2c-.131 2.3-.733 4.55-1.769 6.609zM29 33.949v2c-2.3-.131-4.55-.733-6.609-1.769l1-1.734A14.871 14.871 0 0 0 29 33.949zm2 0a14.871 14.871 0 0 0 5.608-1.5l1 1.734A16.841 16.841 0 0 1 31 35.949v-2zM44.186 9.655l-1.73 1a15.109 15.109 0 0 0-4.11-4.11l1-1.73a17.13 17.13 0 0 1 4.84 4.84zM20.655 4.814l1 1.73a15.109 15.109 0 0 0-4.11 4.11l-1.73-1a17.13 17.13 0 0 1 4.84-4.84zm-4.841 23.531l1.73-1a15.109 15.109 0 0 0 4.11 4.11l-1 1.73a17.13 17.13 0 0 1-4.84-4.84z"></path><path d="M25 25a1 1 0 0 0 0 2h4v2a1 1 0 0 0 2 0v-2h.5a4.5 4.5 0 1 0 0-9H31v-5h4a1 1 0 0 0 0-2h-4V9a1 1 0 0 0-2 0v2h-.5a4.5 4.5 0 1 0 0 9h.5v5h-4zm3.5-7a2.5 2.5 0 1 1 0-5h.5v5h-.5zm2.5 2h.5a2.5 2.5 0 1 1 0 5H31v-5z"></path>
	</symbol>


	<!--******************************************   4 -->


<symbol id="marathon4" viewBox="0 0 512 512">
		<path d="m400.574219 154.328125c-3.414063-1.664063-7.058594-3.292969-10.820313-4.898437 21.816406-42.308594 11.59375-94.074219-24.664062-124.921876-36.257813-30.84375-88.992188-32.632812-127.257813-4.320312-38.269531 28.316406-51.976562 79.269531-33.082031 122.964844-5.433594 2.054687-10.765625 4.332031-16.015625 6.773437-20.941406-19.15625-53.785156-21.554687-67.695313-21.632812-8.410156-.042969-15.605468 6.03125-16.972656 14.328125-1.257812 8.039062-1.765625 16.179687-1.511718 24.3125-6.847657.378906-13.660157 1.234375-20.394532 2.558594-8.273437 1.609374-14.148437 8.992187-13.855468 17.417968.351562 16.710938 4.695312 33.09375 12.664062 47.785156-.972656 1.085938-1.957031 2.160157-2.921875 3.242188-5.449219 6.078125-11.089844 12.359375-16.84375 18.167969-11.03125 8.457031-24.363281 13.375-38.246094 14.105469-7.269531.988281-13.808593 4.945312-18.054687 10.925781-4.25 5.984375-5.832032 13.457031-4.371094 20.648437l13.875 69.804688c1.050781 5.886718 6.691406 10.546875 16.742188 17.066406l1.195312.785156c7.546875 4.875 15.664062 8.800782 24.175781 11.679688 5.367188 1.914062 10.605469 4.175781 15.683594 6.769531 11.683594 6.316406 21.824219 15.148437 29.6875 25.855469 1.417969 1.988281 2.925781 3.890625 4.589844 5.828125 15.082031 15.714843 34.445312 26.652343 55.691406 31.453125v15.667968c0 14.136719 11.460937 25.597657 25.597656 25.597657h59.734375c14.136719 0 25.601563-11.460938 25.601563-25.597657v-1.085937c7.140625.332031 14.273437.667969 21.476562.90625 3.910157.136719 7.800781.195313 11.648438.195313 6.144531 0 12.140625-.222657 18.074219-.554688v.539062c0 14.136719 11.460937 25.597657 25.597656 25.597657h59.734375c14.140625 0 25.601562-11.460938 25.601562-25.597657v-33.050781c45.222657-27.472656 73.964844-75.503906 76.796875-128.339843 3.285156-69.625-40.472656-136.75-111.460937-170.976563zm-101.871094-136.96875c39.792969-.136719 74.378906 27.289063 83.308594 66.066406 8.925781 38.777344-10.179688 78.570313-46.027344 95.847657-27.539063-5.949219-55.8125-7.730469-83.882813-5.292969-31.636718-20.585938-45.957031-59.535157-35.191406-95.714844 10.761719-36.175781 44.046875-60.960937 81.792969-60.90625zm-177.714844 128c17.890625-.371094 35.539063 4.175781 51.019531 13.152344-8.140624 4.625-16.355468 9.957031-24.523437 15.726562-8.800781-3.984375-18.234375-6.375-27.871094-7.066406-.28125-7.296875.179688-14.605469 1.375-21.8125zm-35.515625 40.859375c8.503906-1.6875 17.160156-2.507812 25.832032-2.449219.152343 0 .28125.078125.425781.078125s.527343 0 .792969-.054687c16.214843-.875 31.941406 5.726562 42.667968 17.921875 7.121094 7.394531 9.136719 18.328125 5.117188 27.777344-6.964844 11.246093-19.207032 18.140624-32.433594 18.269531-19.03125 0-40.441406-19.261719-42.496094-61.542969zm409.496094 138.273438c-2.296875 43.585937-24.480469 83.699218-60.175781 108.816406-.9375-3.707032-4.261719-6.316406-8.089844-6.347656-4.710937 0-8.53125 3.820312-8.53125 8.53125v51.203124c0 4.710938-3.820313 8.53125-8.535156 8.53125h-59.734375c-4.710938 0-8.53125-3.820312-8.53125-8.53125v-25.601562c0-4.710938-3.820313-8.53125-8.535156-8.53125-4.710938 0-8.53125 3.820312-8.53125 8.53125v7.894531c-9.457032.5625-19.167969.851563-29.160157.46875-7.390625-.246093-14.710937-.582031-22.039062-.921875v-7.441406c0-4.710938-3.824219-8.53125-8.535157-8.53125-4.714843 0-8.535156 3.820312-8.535156 8.53125v25.601562c0 4.710938-3.820312 8.53125-8.53125 8.53125h-59.734375c-4.710937 0-8.53125-3.820312-8.53125-8.53125v-42.667968c0-4.710938-3.820312-8.535156-8.535156-8.535156-4.710937 0-8.53125 3.824218-8.53125 8.535156v9.191406c-16.324219-4.035156-31.152344-12.644531-42.753906-24.816406-1.296875-1.511719-2.507813-3.027344-3.710938-4.710938-9.386719-12.789062-21.496093-23.332031-35.457031-30.863281-5.710938-2.945313-11.609375-5.507813-17.65625-7.679687-7.242188-2.425782-14.164062-5.722657-20.617188-9.8125l-1.542968-1.015626c-3.398438-2.015624-6.585938-4.371093-9.507813-7.03125l-13.652343-68.898437c-.535157-2.59375.039062-5.292969 1.589843-7.441406 1.484375-2.113281 3.785157-3.507813 6.347657-3.851563 15.359374-2.019531 36.179687-6.960937 48.128906-19.003906 6.046875-6.117188 11.835937-12.558594 17.414062-18.769531l.710938-.796875c9.449218 10.113281 22.574218 15.988281 36.410156 16.300781 19.714844-.097656 37.890625-10.660156 47.734375-27.742187 6.957031-15.21875 4.304687-33.109376-6.773437-45.652344-1.882813-2.46875-3.976563-4.769532-6.257813-6.878906 6.207031-4.191407 12.410156-8.15625 18.554687-11.621094 10.226563-5.6875 20.902344-10.539063 31.914063-14.507813 4.332031 6.632813 9.414063 12.742188 15.144531 18.210938-9.625 1.441406-15.71875 2.804687-16.742187 3.035156-4.59375 1.0625-7.460938 5.644531-6.398438 10.242187 1.058594 4.59375 5.644531 7.460938 10.238281 6.398438 1.066407-.253906 107.929688-24.0625 172.160157 24.109375 3.769531 2.824219 9.121093 2.0625 11.949219-1.707031 2.828124-3.773438 2.0625-9.121094-1.707032-11.949219-12.085937-8.917969-25.421875-15.996094-39.578125-21.007813 8.5-6.066406 16.015625-13.40625 22.269531-21.769531 4.492188 1.871094 8.773438 3.738281 12.742188 5.667969 64.84375 31.300781 104.824219 92.066406 101.84375 154.835938zm0 0"></path><path d="m273.105469 130.1875c0-4.710938-3.824219-8.53125-8.535157-8.53125-4.714843 0-8.535156 3.820312-8.535156 8.53125 0 18.929688 19.140625 34.332031 42.667969 34.332031s42.667969-15.363281 42.667969-34.332031c0-16.570312-14.6875-30.4375-34.132813-33.621094v-34.132812c9.8125 2.441406 17.066407 8.824218 17.066407 16.164062 0 4.710938 3.820312 8.53125 8.53125 8.53125 4.714843 0 8.535156-3.820312 8.535156-8.53125 0-16.582031-14.6875-30.441406-34.132813-33.632812v-2.003906c0-4.714844-3.820312-8.535157-8.535156-8.535157-4.710937 0-8.53125 3.820313-8.53125 8.535157v2.023437c-19.449219 3.191406-34.136719 17.066406-34.136719 33.628906s14.6875 30.4375 34.136719 33.628907v34.132812c-9.816406-2.464844-17.066406-8.847656-17.066406-16.1875zm51.199219 0c0 7.339844-7.253907 13.722656-17.066407 16.164062v-32.316406c9.8125 2.433594 17.066407 8.816406 17.066407 16.152344zm-51.199219-51.574219c0-7.339843 7.25-13.722656 17.066406-16.164062v32.324219c-9.816406-2.4375-17.066406-8.820313-17.066406-16.160157zm0 0"></path>
	</symbol>


	<!-- **************************   5    ***************************************-->


	<symbol id="marathon5" viewBox="0 0 58 58">
		<g>
	<path d="M32,0c-1.021,0-2.026,0.076-3.015,0.21C27.953,0.072,26.972,0,26,0c-4.883,0-9.449,1.572-13.33,4.29
		c-0.001,0.001-0.003,0.002-0.004,0.003c-1.968,1.379-3.758,3.055-5.326,4.97C7.293,9.306,7.258,9.356,7.22,9.407
		c-1.484,1.838-2.76,3.896-3.791,6.122c-0.028,0.05-0.051,0.1-0.07,0.155c-0.71,1.556-1.303,3.191-1.759,4.895
		c-0.045,0.096-0.065,0.201-0.078,0.311C0.861,23.465,0.5,26.185,0.5,29c0,4.403,0.871,8.577,2.422,12.319
		C2.936,41.361,2.95,41.4,2.97,41.439c0.928,2.214,2.097,4.273,3.466,6.136c0.037,0.051,0.067,0.105,0.113,0.148
		c1.389,1.864,2.982,3.524,4.738,4.94c0.051,0.057,0.113,0.099,0.176,0.143C15.59,56.076,20.6,58,26,58
		c0.972,0,1.953-0.072,2.985-0.21C29.974,57.924,30.979,58,32,58c14.061,0,25.5-13.009,25.5-29S46.061,0,32,0z M21.419,2.625
		c-0.318,0.166-0.632,0.338-0.943,0.518c-0.189,0.109-0.38,0.216-0.566,0.33C19.636,3.642,19.368,3.82,19.1,4h-1.926
		c1.462-0.684,2.988-1.224,4.579-1.559C21.64,2.498,21.532,2.566,21.419,2.625z M11.36,46H7.773c-0.882-1.246-1.665-2.585-2.345-4
		h3.788c0.157,0.355,0.319,0.706,0.488,1.052c0.072,0.148,0.148,0.293,0.222,0.439c0.206,0.404,0.42,0.801,0.642,1.192
		c0.081,0.144,0.16,0.289,0.243,0.431C10.988,45.415,11.173,45.708,11.36,46z M4.968,17h3.827c-0.176,0.438-0.342,0.881-0.498,1.329
		c-0.043,0.123-0.086,0.245-0.128,0.368C8.024,19.127,7.89,19.561,7.763,20H3.857C4.175,18.969,4.547,17.969,4.968,17z M2.5,29
		c0-0.674,0.036-1.338,0.078-2h3.987c-0.001,0.016-0.001,0.032-0.002,0.048C6.526,27.694,6.5,28.343,6.5,29
		c0,0.335,0.012,0.667,0.022,1H2.539C2.528,29.666,2.5,29.337,2.5,29z M6.636,32c0.038,0.421,0.087,0.839,0.141,1.255
		c0.004,0.03,0.006,0.061,0.01,0.092C6.861,33.903,6.951,34.454,7.052,35H3.108c-0.195-0.982-0.349-1.981-0.448-3H6.636z M7.256,22
		c-0.026,0.119-0.048,0.239-0.073,0.358c-0.027,0.131-0.054,0.261-0.08,0.392c-0.122,0.628-0.231,1.261-0.316,1.903
		c-0.004,0.03-0.006,0.061-0.01,0.092C6.766,24.83,6.759,24.915,6.748,25H2.779c0.132-1.018,0.299-2.022,0.528-3H7.256z M7.495,37
		c0.031,0.123,0.06,0.247,0.093,0.37c0.011,0.043,0.021,0.087,0.033,0.13c0.165,0.61,0.35,1.21,0.549,1.802
		c0.041,0.123,0.085,0.245,0.128,0.368c0.038,0.11,0.075,0.22,0.114,0.329H4.558c-0.379-0.971-0.705-1.973-0.983-3H7.495z
		 M10.811,12.885c-0.083,0.142-0.162,0.287-0.243,0.431c-0.222,0.391-0.436,0.789-0.642,1.192c-0.074,0.146-0.15,0.291-0.222,0.439
		C9.695,14.965,9.686,14.982,9.678,15H5.929c0.757-1.427,1.629-2.762,2.596-4h3.503c-0.122,0.175-0.245,0.348-0.363,0.526
		C11.37,11.969,11.084,12.422,10.811,12.885z M13.731,6h2.763C16.247,6.216,16,6.434,15.759,6.66
		c-0.203,0.192-0.4,0.391-0.598,0.589c-0.196,0.197-0.39,0.396-0.58,0.6c-0.186,0.199-0.373,0.396-0.554,0.6
		C13.868,8.629,13.716,8.815,13.561,9h-3.302C11.333,7.883,12.492,6.876,13.731,6z M9.324,48h3.432
		c0.113,0.148,0.225,0.297,0.341,0.442c0.302,0.379,0.612,0.749,0.931,1.109c0.181,0.205,0.367,0.402,0.554,0.6
		c0.191,0.203,0.384,0.403,0.58,0.6c0.081,0.082,0.159,0.169,0.241,0.249h-3.008C11.297,50.101,10.27,49.097,9.324,48z
		 M21.753,55.559c-2.293-0.483-4.46-1.369-6.47-2.559h2.419c0.125,0.096,0.253,0.187,0.379,0.281
		c0.213,0.158,0.424,0.317,0.641,0.468c0.389,0.271,0.785,0.531,1.187,0.778c0.187,0.115,0.377,0.221,0.566,0.33
		c0.311,0.18,0.625,0.353,0.943,0.518C21.532,55.434,21.64,55.502,21.753,55.559z M32,56c-0.794,0-1.579-0.047-2.354-0.136
		l-0.397-0.055c-0.049-0.007-0.098-0.015-0.147-0.021c-0.348-0.049-0.693-0.107-1.036-0.173c-0.025-0.005-0.049-0.01-0.074-0.015
		c-0.335-0.066-0.667-0.139-0.996-0.221c-0.044-0.011-0.087-0.023-0.13-0.035c-0.309-0.079-0.616-0.163-0.92-0.256
		c-0.082-0.025-0.162-0.054-0.243-0.08c-0.265-0.084-0.529-0.17-0.789-0.265c-0.185-0.067-0.367-0.142-0.549-0.214
		c-0.156-0.061-0.313-0.119-0.467-0.184c-5.376-2.276-9.834-6.748-12.546-12.464c-0.024-0.052-0.047-0.104-0.071-0.156
		c-0.146-0.312-0.288-0.628-0.423-0.948c-0.053-0.125-0.102-0.252-0.153-0.378c-0.102-0.25-0.202-0.501-0.298-0.755
		c-0.06-0.161-0.117-0.324-0.175-0.487c-0.079-0.223-0.157-0.447-0.232-0.674c-0.06-0.183-0.117-0.367-0.173-0.552
		c-0.065-0.212-0.128-0.425-0.189-0.64c-0.055-0.195-0.107-0.391-0.158-0.587c-0.055-0.21-0.107-0.422-0.157-0.635
		c-0.048-0.201-0.094-0.403-0.137-0.607c-0.046-0.213-0.088-0.428-0.129-0.643c-0.039-0.204-0.078-0.409-0.113-0.614
		c-0.038-0.222-0.071-0.446-0.104-0.671c-0.03-0.201-0.06-0.401-0.086-0.604c-0.031-0.24-0.055-0.483-0.08-0.725
		c-0.02-0.189-0.042-0.377-0.058-0.567c-0.024-0.278-0.04-0.558-0.056-0.839c-0.009-0.158-0.022-0.314-0.029-0.472
		C8.511,29.889,8.5,29.446,8.5,29s0.011-0.889,0.029-1.33c0.007-0.158,0.02-0.315,0.029-0.472c0.016-0.28,0.032-0.561,0.056-0.839
		c0.016-0.19,0.038-0.378,0.058-0.567c0.025-0.242,0.05-0.485,0.08-0.725c0.026-0.202,0.057-0.403,0.086-0.604
		c0.033-0.224,0.067-0.448,0.104-0.671c0.035-0.206,0.074-0.41,0.113-0.614c0.041-0.215,0.084-0.43,0.129-0.643
		c0.044-0.203,0.09-0.405,0.137-0.607c0.05-0.213,0.103-0.424,0.157-0.635c0.051-0.197,0.103-0.392,0.158-0.587
		c0.06-0.215,0.124-0.428,0.189-0.64C9.884,19.884,9.94,19.699,10,19.517c0.074-0.226,0.152-0.45,0.232-0.674
		c0.058-0.163,0.114-0.326,0.175-0.487c0.095-0.254,0.196-0.505,0.298-0.755c0.051-0.126,0.1-0.253,0.153-0.378
		c0.135-0.32,0.277-0.635,0.423-0.948c0.024-0.052,0.046-0.105,0.071-0.156c2.712-5.717,7.171-10.189,12.546-12.464
		c0.154-0.065,0.311-0.122,0.467-0.184c0.183-0.072,0.365-0.147,0.549-0.214c0.261-0.094,0.525-0.181,0.789-0.265
		c0.081-0.026,0.162-0.055,0.243-0.08c0.304-0.093,0.611-0.177,0.92-0.256c0.044-0.011,0.087-0.024,0.13-0.035
		c0.329-0.082,0.661-0.155,0.996-0.221c0.025-0.005,0.049-0.01,0.074-0.015c0.343-0.066,0.688-0.124,1.036-0.173
		c0.049-0.007,0.098-0.015,0.147-0.021l0.397-0.055C30.421,2.047,31.206,2,32,2c12.958,0,23.5,12.112,23.5,27S44.958,56,32,56z"></path>
	<path d="M32,8.476c0.606,0,1.219,0.036,1.818,0.105c0.04,0.005,0.079,0.007,0.117,0.007c0.501,0,0.933-0.375,0.992-0.884
		c0.064-0.548-0.329-1.045-0.877-1.109c-0.673-0.079-1.358-0.119-2.068-0.119c-0.004,0-0.008,0-0.012,0l-0.013,1v-1
		c-0.553,0-0.979,0.447-0.979,1C30.979,8.029,31.447,8.476,32,8.476z"></path>
	<path d="M24.329,10.337c0.152,0,0.308-0.035,0.453-0.109c0.558-0.284,1.133-0.538,1.709-0.753c0.517-0.193,0.779-0.77,0.586-1.287
		c-0.193-0.518-0.767-0.781-1.287-0.586c-0.646,0.242-1.291,0.526-1.916,0.845c-0.492,0.25-0.688,0.853-0.437,1.345
		C23.614,10.138,23.965,10.337,24.329,10.337z"></path>
	<path d="M49.135,23.292c0.113,0.454,0.521,0.757,0.969,0.757c0.081,0,0.162-0.01,0.244-0.03c0.536-0.135,0.861-0.678,0.727-1.213
		c-0.167-0.665-0.364-1.332-0.587-1.982c-0.18-0.522-0.748-0.801-1.271-0.621c-0.522,0.179-0.801,0.748-0.622,1.271
		C48.8,22.07,48.981,22.682,49.135,23.292z"></path>
	<path d="M47.731,15.277c-0.387-0.571-0.805-1.13-1.242-1.662c-0.352-0.426-0.98-0.487-1.408-0.137
		c-0.426,0.351-0.487,0.981-0.137,1.408c0.398,0.484,0.779,0.993,1.131,1.513c0.193,0.286,0.509,0.439,0.829,0.439
		c0.193,0,0.388-0.056,0.56-0.172C47.921,16.355,48.041,15.734,47.731,15.277z"></path>
	<path d="M32,49.524c-0.621,0-1.247-0.037-1.857-0.11c-0.561-0.056-1.047,0.327-1.112,0.875c-0.065,0.548,0.326,1.046,0.874,1.112
		c0.69,0.082,1.396,0.124,2.096,0.124h0.084c0.553,0,0.958-0.448,0.958-1S32.553,49.524,32,49.524z"></path>
	<path d="M45.021,43.02c-0.397,0.488-0.82,0.96-1.259,1.404c-0.388,0.393-0.384,1.026,0.01,1.414
		c0.194,0.192,0.448,0.289,0.702,0.289c0.258,0,0.516-0.099,0.712-0.297c0.482-0.489,0.948-1.009,1.386-1.546
		c0.349-0.429,0.284-1.059-0.145-1.407S45.37,42.593,45.021,43.02z"></path>
	<path d="M39.252,47.754c-0.555,0.285-1.129,0.54-1.706,0.757c-0.517,0.194-0.778,0.771-0.583,1.288
		c0.15,0.401,0.531,0.648,0.936,0.648c0.117,0,0.236-0.021,0.353-0.065c0.648-0.244,1.293-0.53,1.915-0.849
		c0.491-0.252,0.685-0.855,0.433-1.346C40.348,47.696,39.745,47.5,39.252,47.754z"></path>
	<path d="M41.857,9.45c-0.585-0.382-1.194-0.733-1.812-1.044c-0.494-0.249-1.095-0.05-1.343,0.443
		c-0.249,0.493-0.051,1.095,0.442,1.343c0.552,0.278,1.097,0.592,1.62,0.933c0.168,0.11,0.357,0.163,0.545,0.163
		c0.326,0,0.646-0.16,0.839-0.454C42.451,10.372,42.32,9.752,41.857,9.45z"></path>
	<path d="M50.833,27.968c-0.553,0-1,0.479-1,1.032c0,0.618-0.023,1.236-0.07,1.839c-0.043,0.551,0.369,1.032,0.92,1.074
		c0.026,0.002,0.053,0.003,0.078,0.003c0.518,0,0.955-0.398,0.996-0.923c0.051-0.654,0.076-1.325,0.076-1.994v-0.064
		C51.833,28.384,51.386,27.968,50.833,27.968z"></path>
	<path d="M14.167,29c0-0.623,0.025-1.256,0.074-1.88c0.043-0.551-0.368-1.032-0.919-1.076c-0.544-0.036-1.032,0.368-1.075,0.918
		c-0.053,0.676-0.08,1.362-0.08,2.037v0.021c0,0.552,0.447,0.989,1,0.989S14.167,29.552,14.167,29z"></path>
	<path d="M49.901,35.783c-0.522-0.175-1.09,0.105-1.267,0.628c-0.202,0.598-0.432,1.193-0.683,1.77
		c-0.221,0.506,0.012,1.096,0.518,1.316c0.13,0.057,0.266,0.083,0.398,0.083c0.387,0,0.754-0.225,0.918-0.601
		c0.273-0.629,0.523-1.278,0.743-1.93C50.706,36.527,50.425,35.96,49.901,35.783z"></path>
	<path d="M15.55,18.465c-0.51-0.226-1.096,0.008-1.317,0.514c-0.274,0.626-0.526,1.275-0.748,1.929
		c-0.177,0.523,0.104,1.091,0.626,1.269c0.106,0.036,0.215,0.053,0.321,0.053c0.417,0,0.806-0.263,0.947-0.679
		c0.203-0.6,0.434-1.195,0.686-1.768C16.286,19.277,16.056,18.687,15.55,18.465z"></path>
	<path d="M17.902,41.567c-0.31-0.458-0.93-0.578-1.389-0.269c-0.457,0.31-0.577,0.931-0.268,1.389
		c0.392,0.579,0.808,1.139,1.238,1.664c0.198,0.241,0.484,0.366,0.774,0.366c0.223,0,0.447-0.074,0.633-0.227
		c0.428-0.351,0.489-0.98,0.14-1.408C18.64,42.605,18.26,42.095,17.902,41.567z"></path>
	<path d="M14.855,34.668c-0.134-0.536-0.679-0.863-1.212-0.729c-0.536,0.133-0.862,0.676-0.729,1.212
		c0.166,0.666,0.363,1.333,0.585,1.983c0.142,0.416,0.53,0.677,0.946,0.677c0.107,0,0.216-0.018,0.323-0.054
		c0.522-0.179,0.802-0.747,0.623-1.27C15.187,35.892,15.008,35.28,14.855,34.668z"></path>
	<path d="M18.846,12.14c-0.482,0.486-0.95,1.006-1.39,1.544c-0.35,0.428-0.286,1.058,0.142,1.407
		c0.186,0.152,0.41,0.226,0.632,0.226c0.29,0,0.578-0.125,0.775-0.367c0.399-0.489,0.823-0.96,1.261-1.401
		c0.389-0.392,0.387-1.025-0.006-1.414C19.868,11.746,19.235,11.747,18.846,12.14z"></path>
	<path d="M24.818,47.791c-0.552-0.28-1.097-0.596-1.618-0.938c-0.462-0.303-1.081-0.172-1.385,0.289
		c-0.302,0.462-0.173,1.082,0.289,1.384c0.583,0.382,1.191,0.734,1.81,1.048c0.145,0.074,0.299,0.108,0.451,0.108
		c0.365,0,0.717-0.2,0.893-0.547C25.508,48.643,25.312,48.041,24.818,47.791z"></path>
	<path d="M37.896,28.805c-1.01-0.5-2.146-0.916-3.375-1.236c-0.71-0.186-1.219-0.319-1.526-0.401v-8.936
		c0.454,0.09,0.886,0.223,1.291,0.396c1.654,0.677,2.625,1.645,3.739,2.877v2.082c0,0.6,0.387,0.987,0.987,0.987
		S40,24.187,40,23.587v-6.169c0-0.6-0.388-0.987-0.987-0.987s-0.987,0.388-0.987,0.987l0,1.315
		c-0.229-0.179-0.075-0.385-0.402-0.618c-1.259-0.902-2.814-1.529-4.629-1.866V14.82c0-0.6-0.387-0.987-0.987-0.987
		s-0.987,0.388-0.987,0.987v1.289c-2.561,0.043-4.482,0.631-5.713,1.75c-1.293,1.177-1.949,2.765-1.949,4.721
		c0,1.037,0.301,1.968,0.894,2.766c0.576,0.776,1.401,1.433,2.453,1.952c0.951,0.471,2.401,0.978,4.316,1.509v9.564
		c-0.52-0.089-1-0.216-1.432-0.38c-1.771-0.676-2.56-1.095-3.615-2.241v-2.243c0-0.6-0.388-0.987-0.987-0.987S24,32.907,24,33.507
		v6.169c0,0.6,0.387,0.987,0.987,0.987s0.987-0.388,0.987-0.987v-1.316c1.727,1.385,2.996,1.723,5.047,2.005v1.405
		c0,0.6,0.388,0.987,0.987,0.987s0.987-0.388,0.987-0.987v-1.287c2.586-0.031,4.611-0.649,6.023-1.837
		c1.476-1.24,2.224-2.932,2.224-5.025c0-1.101-0.301-2.063-0.894-2.863C39.772,29.981,38.947,29.325,37.896,28.805z M31.021,26.617
		c-0.344-0.102-0.722-0.212-1.132-0.329c-0.656-0.188-1.365-0.452-2.107-0.787c-0.696-0.313-1.292-0.76-1.771-1.328
		c-0.456-0.539-0.677-1.155-0.677-1.885c0-1.179,0.463-2.148,1.416-2.965c0.916-0.784,2.352-1.2,4.272-1.24V26.617z M38.375,37.88
		c-0.017,0.014-0.038,0.024-0.055,0.037c0.145-0.118,0.285-0.24,0.414-0.367C38.622,37.664,38.502,37.773,38.375,37.88z
		 M37.654,37.175c-1.068,0.856-2.635,1.305-4.658,1.334v-9.165l1.574,0.439c0.75,0.209,1.507,0.484,2.25,0.818
		c0.696,0.313,1.292,0.761,1.771,1.327c0.456,0.541,0.678,1.157,0.678,1.886C39.269,35.204,38.74,36.304,37.654,37.175z"></path>
</g>
	</symbol>


<!-- *****************************       6       ********************************* -->



<symbol id="marathon6" viewBox="0 0 59.982 59.982">
	<g>
		<path d="M51.991,7.982c-14.596,0-21.14-7.533-21.233-7.642c-0.38-0.455-1.155-0.454-1.535,0.001
			c-0.064,0.076-6.537,7.64-21.232,7.64c-0.552,0-1,0.448-1,1v19.085c0,10.433,4.69,20.348,12.546,26.521
			c3.167,2.489,6.588,4.29,10.169,5.352c0.093,0.028,0.189,0.042,0.285,0.042s0.191-0.014,0.285-0.042
			c3.581-1.063,7.002-2.863,10.169-5.352c7.856-6.174,12.546-16.088,12.546-26.521V8.982C52.991,8.43,52.543,7.982,51.991,7.982z
			M50.991,28.067c0,9.824-4.404,19.151-11.782,24.949c-2.883,2.266-5.983,3.92-9.218,4.921c-3.235-1-6.335-2.655-9.218-4.921
			C13.395,47.219,8.991,37.891,8.991,28.067V9.971c12.242-0.272,18.865-5.497,21-7.545c2.135,2.049,8.758,7.273,21,7.545V28.067z"></path>
		<path d="M29.429,7.986c-3.015,2.049-8.163,4.689-15.564,5.633c-0.5,0.064-0.874,0.489-0.874,0.992v13.457
			c0,8.607,3.833,16.758,10.254,21.804c2.022,1.589,4.169,2.835,6.381,3.703c0.118,0.046,0.241,0.069,0.365,0.069
			s0.248-0.023,0.365-0.069c2.21-0.867,4.358-2.113,6.382-3.703c6.42-5.046,10.253-13.197,10.253-21.804V14.611
			c0-0.503-0.374-0.928-0.874-0.992c-7.401-0.944-12.549-3.584-15.564-5.633C30.214,7.755,29.768,7.755,29.429,7.986z M44.991,15.482
			v12.585c0,7.999-3.547,15.562-9.489,20.231c-1.758,1.381-3.61,2.479-5.511,3.266c-1.901-0.788-3.753-1.885-5.51-3.266
			c-5.942-4.67-9.49-12.233-9.49-20.232V15.482c6.899-1.021,11.875-3.446,15-5.47C33.116,12.036,38.092,14.461,44.991,15.482z"></path>
	</g>
</symbol>


<!-- *****************************    SOC1        ********************************* -->



<symbol id="soc1" viewBox="0 0 120 120">
	<path d="M85.7048 43C87.6416 43 88.0566 43.967 87.6416 45.3488C86.9491 48.6842 80.7163 57.6967 79.2707 59.7869C79.0797 60.0631 78.9723 60.2184 78.9723 60.2238C78.2806 61.283 78.0039 61.8354 78.9723 63.0789C79.3021 63.573 80.0531 64.3074 80.9117 65.1471C81.7339 65.9512 82.6548 66.8518 83.3991 67.7303C86.1659 70.8618 88.241 73.4868 88.8405 75.283C89.3939 77.0789 88.4716 78 86.6271 78H80.1712C78.4585 78 77.5837 77.0275 75.7058 74.9396C74.904 74.0482 73.9194 72.9536 72.6087 71.6447C68.7812 67.9604 67.1673 67.5 66.1989 67.5C64.8616 67.5 64.4927 67.8684 64.4927 69.7104V75.5132C64.4927 77.0789 63.9855 78 59.8814 78C53.0566 78 45.5402 73.8553 40.191 66.2104C32.1673 55.0197 30 46.5461 30 44.842C30 43.875 30.3689 43 32.2134 43H38.6693C40.3294 43 40.9288 43.7368 41.5744 45.4408C44.7101 54.6512 50.0593 62.6646 52.2266 62.6646C53.0566 62.6646 53.4255 62.2961 53.4255 60.2238V50.7368C53.2555 48.0759 52.3188 46.9115 51.6222 46.0454C51.1855 45.5026 50.8432 45.077 50.8432 44.4738C50.8432 43.783 51.4888 43 52.5033 43H62.6482C64.0316 43 64.4927 43.6908 64.4927 45.3488V58.1512C64.4927 59.533 65.0922 59.9934 65.5072 59.9934C66.3372 59.9934 66.9828 59.533 68.5046 58.0132C73.162 52.8553 76.436 44.842 76.436 44.842C76.8511 43.875 77.5889 43 79.249 43H85.7048Z"></path><path fill-rule="evenodd" clip-rule="evenodd" d="M120 60C120 93.1371 93.1371 120 60 120C26.8629 120 0 93.1371 0 60C0 26.8629 26.8629 0 60 0C93.1371 0 120 26.8629 120 60ZM116 60C116 90.928 90.9279 116 60 116C29.0721 116 4 90.928 4 60C4 29.072 29.0721 4 60 4C90.9279 4 116 29.072 116 60Z"></path>
</symbol>

<!-- *****************************    SOC2        ********************************* -->



<symbol id="soc2" viewBox="0 0 120 120">
<path fill-rule="evenodd" clip-rule="evenodd" d="M60.0011 73.8643C52.3436 73.8643 46.1364 67.6572 46.1364 60C46.1364 52.3428 52.3436 46.1357 60.0011 46.1357C67.6586 46.1357 73.8658 52.3428 73.8658 60C73.8658 67.6572 67.6586 73.8643 60.0011 73.8643ZM60.0011 50.9993C55.0305 50.9993 51.0022 55.0295 51.0022 60C51.0022 64.9705 55.0305 69.0007 60.0011 69.0007C64.9717 69.0007 69.0022 64.9705 69.0022 60C69.0022 55.0295 64.9717 50.9993 60.0011 50.9993Z"></path><path d="M71.7199 47.3864C71.3641 46.8534 71.1743 46.2269 71.1746 45.5861C71.1753 44.7272 71.517 43.9036 72.1245 43.2964C72.732 42.6891 73.5557 42.3478 74.4147 42.3474H74.416C75.0568 42.3477 75.6832 42.5378 76.2159 42.8942C76.7486 43.2504 77.1637 43.7566 77.4087 44.3488C77.6537 44.9408 77.7176 45.5923 77.5923 46.2208C77.467 46.8492 77.1582 47.4264 76.7049 47.8793C76.2516 48.3323 75.6741 48.6406 75.0455 48.7654C74.417 48.8903 73.7655 48.8257 73.1735 48.5803C72.5816 48.3348 72.0757 47.9193 71.7199 47.3864Z"></path><path fill-rule="evenodd" clip-rule="evenodd" d="M42.3152 34.4176C44.0305 33.7502 45.9946 33.2944 48.8691 33.1635C51.7496 33.0305 52.6706 33 60.0032 33C67.3359 33 68.2563 33.0326 71.1352 33.1635C74.0075 33.2922 75.9706 33.7502 77.6892 34.4176C79.4624 35.1069 80.9697 36.0292 82.4701 37.5319C83.9705 39.0345 84.8933 40.5396 85.5845 42.3148C86.252 44.03 86.7077 45.9939 86.8386 48.8684C86.9695 51.7473 87 52.6677 87 60C87 67.3323 86.9695 68.2506 86.8386 71.1316C86.7099 74.0059 86.252 75.9689 85.5845 77.6852C84.8933 79.4604 83.9729 80.9678 82.4701 82.4681C80.9673 83.9684 79.4624 84.8912 77.687 85.5824C75.9706 86.2498 74.0077 86.7056 71.1331 86.8365C68.2541 86.9695 67.3337 87 60.0011 87C52.6685 87 51.7496 86.9674 48.8691 86.8365C45.9946 86.7056 44.0337 86.2498 42.3152 85.5824C40.5387 84.8912 39.0346 83.9678 37.5321 82.4681C36.0295 80.9684 35.1069 79.4604 34.4177 77.6852C33.7502 75.9689 33.2944 74.0061 33.1635 71.1316C33.0305 68.2527 33 67.3323 33 60C33 52.6677 33.0305 51.7473 33.1635 48.8684C33.2944 45.9941 33.7502 44.0311 34.4177 42.3148C35.1069 40.5385 36.0293 39.0322 37.5321 37.5319C39.0348 36.0316 40.5387 35.1069 42.3152 34.4176ZM44.0784 81.0486C45.0293 81.4189 46.4601 81.8575 49.0926 81.9774C51.9379 82.1082 52.7905 82.1344 60.0011 82.1344C67.2117 82.1344 68.0666 82.1082 70.9128 81.9774C73.5453 81.8577 74.9765 81.4192 75.927 81.0486C77.1876 80.5577 78.0884 79.9724 79.0327 79.0291C79.9771 78.0854 80.5616 77.186 81.0524 75.9255C81.4207 74.9746 81.8614 73.5438 81.9813 70.9115C82.1122 68.0631 82.1383 67.2104 82.1383 60.0002C82.1383 52.7899 82.1122 51.9374 81.9813 49.089C81.8616 46.4565 81.4231 45.0254 81.0524 44.075C80.5616 42.8145 79.9784 41.9137 79.0327 40.9692C78.0871 40.025 77.1876 39.4384 75.927 38.9497C74.9737 38.5825 73.5453 38.1407 70.9128 38.0209C68.0643 37.8922 67.2084 37.8639 60.0011 37.8639C52.7937 37.8639 51.9388 37.89 49.0926 38.0209C46.4601 38.1406 45.0289 38.5791 44.0784 38.9497C42.8156 39.4384 41.9171 40.0237 40.9727 40.9692C40.0283 41.915 39.4438 42.8145 38.953 44.075C38.5858 45.0282 38.144 46.4565 38.0241 49.089C37.8954 51.9374 37.8671 52.7899 37.8671 60.0002C37.8671 67.2104 37.8932 68.0654 38.0241 70.9115C38.1438 73.5438 38.5823 74.9751 38.953 75.9255C39.4416 77.186 40.027 78.0846 40.9727 79.0291C41.9183 79.9733 42.8178 80.5577 44.0784 81.0486Z"></path><path fill-rule="evenodd" clip-rule="evenodd" d="M120 60C120 93.1371 93.1371 120 60 120C26.8629 120 0 93.1371 0 60C0 26.8629 26.8629 0 60 0C93.1371 0 120 26.8629 120 60ZM116 60C116 90.928 90.9279 116 60 116C29.0721 116 4 90.928 4 60C4 29.072 29.0721 4 60 4C90.9279 4 116 29.072 116 60Z"></path>
</symbol>



<!-- *****************************    SOC3        ********************************* -->



<symbol id="soc3" viewBox="0 0 120 120">
<path d="M58.9215 45.9635L28.8497 58.8026C26.4086 59.7651 25.1299 60.7064 25.0135 61.6267C24.8168 63.182 26.7817 63.7944 29.4577 64.6285C29.8218 64.7421 30.1991 64.8596 30.5859 64.9843C33.2187 65.8325 36.7603 66.825 38.6015 66.8644C40.2715 66.9001 42.1356 66.2177 44.1936 64.8169C58.2387 55.4193 65.4888 50.6696 65.944 50.567C66.265 50.4958 66.7102 50.4038 67.0117 50.6697C67.3131 50.9354 67.2825 51.4384 67.2515 51.5732C67.057 52.3955 59.3499 59.4979 55.3564 63.1781C54.1091 64.3275 53.224 65.1432 53.0433 65.3293C52.639 65.7455 52.227 66.1392 51.831 66.5175C49.385 68.8546 47.5507 70.6073 51.9326 73.4692L63.4403 81.1312C64.0439 81.5233 64.6203 81.9307 65.1818 82.3274C67.3182 83.8372 69.2377 85.1934 71.609 84.9772C72.9879 84.8516 74.41 83.5674 75.133 79.7371C76.8412 70.6853 80.1991 51.0725 80.9751 42.9907C81.0431 42.2827 80.9577 41.3762 80.8889 40.9786C80.8201 40.5809 80.6768 40.014 80.1549 39.5946C79.5372 39.0977 78.5834 38.9929 78.1568 39.0004C76.2173 39.0342 73.2418 40.0597 58.9215 45.9635Z"></path><path fill-rule="evenodd" clip-rule="evenodd" d="M120 60C120 93.1371 93.1371 120 60 120C26.8629 120 0 93.1371 0 60C0 26.8629 26.8629 0 60 0C93.1371 0 120 26.8629 120 60ZM116 60C116 90.928 90.928 116 60 116C29.0721 116 4 90.928 4 60C4 29.072 29.0721 4 60 4C90.928 4 116 29.072 116 60Z"></path>
</symbol>




<!-- *****************************    students-line        ********************************* -->



<symbol id="student-line" viewBox="0 0 2019 136">
 <path fill-rule="evenodd" clip-rule="evenodd" d="M0 0L84.125 15.8667C168.25 31.7333 336.5 63.4667 504.75 74.8C673 86.1333 841.25 77.0667 1009.5 65.7333C1177.75 54.4 1346 40.8 1514.25 49.8667C1682.5 58.9333 1850.75 90.6667 1934.88 106.533L2019 122.4V136H1934.88C1850.75 136 1682.5 136 1514.25 136C1346 136 1177.75 136 1009.5 136C841.25 136 673 136 504.75 136C336.5 136 168.25 136 84.125 136H0V0Z"></path>
</symbol>



<!--  *****************************       КОНЕЦ     ***************************** -->
</svg>






