<svg width="13" height="22" viewBox="0 0 13 22" fill="none" xmlns="http://www.w3.org/2000/svg">
<path d="M8.95291 0.390071C7.26061 0.390087 5.88354 0.929285 4.92957 1.90716C3.97573 2.8849 3.44999 4.29595 3.44999 6.03007V8.32107H0.674988C0.529119 8.32107 0.389224 8.37902 0.286079 8.48216C0.182934 8.58531 0.124988 8.7252 0.124988 8.87107V12.7211C0.124988 12.8669 0.182934 13.0068 0.286079 13.11C0.389224 13.2131 0.529119 13.2711 0.674988 13.2711H3.44999V20.9411C3.44999 21.0869 3.50793 21.2268 3.61108 21.33C3.71422 21.4331 3.85412 21.4911 3.99999 21.4911H7.97799C8.12386 21.4911 8.26375 21.4331 8.3669 21.33C8.47004 21.2268 8.52799 21.0869 8.52799 20.9411V13.2711H11.294C11.294 13.2711 11.294 13.2711 11.294 13.2711C11.4275 13.2711 11.5565 13.2226 11.6569 13.1346C11.7573 13.0465 11.8222 12.925 11.8396 12.7926L11.8396 12.7925L12.3366 8.94257C12.3467 8.86495 12.3402 8.78604 12.3175 8.71114C12.2947 8.63623 12.2562 8.56705 12.2046 8.50822C12.1529 8.44939 12.0893 8.40226 12.018 8.36998C11.9467 8.33771 11.8693 8.32104 11.791 8.32107C11.791 8.32107 11.791 8.32107 11.791 8.32107H8.52799V6.41207C8.52799 5.92606 8.57808 5.60103 8.76427 5.39428C8.94927 5.18885 9.28143 5.08707 9.88599 5.08707H11.925C12.0709 5.08707 12.2108 5.02912 12.3139 4.92598C12.417 4.82283 12.475 4.68294 12.475 4.53707V1.0921C12.475 1.09209 12.475 1.09208 12.475 1.09207C12.475 0.958549 12.4265 0.829564 12.3385 0.729179C12.2504 0.628787 12.1289 0.563854 11.9965 0.546495L11.9965 0.54648L11.9953 0.54635C10.9847 0.43915 9.96911 0.386981 8.95291 0.390071ZM8.95291 0.390071C8.95294 0.390071 8.95296 0.390071 8.95299 0.390071V0.440071L8.95284 0.390071C8.95286 0.390071 8.95289 0.390071 8.95291 0.390071ZM7.97699 9.42207H7.97689C7.83121 9.42178 7.6916 9.3637 7.58869 9.26059C7.48578 9.15748 7.42799 9.01775 7.42799 8.87207V6.41207C7.42799 5.90036 7.49028 5.29313 7.83188 4.81344C8.17597 4.33027 8.79534 3.98708 9.88496 3.98707L7.97699 9.42207ZM7.97699 9.42207H11.1661L10.81 12.1721H7.97799C7.83212 12.1721 7.69222 12.23 7.58908 12.3332C7.48593 12.4363 7.42799 12.5762 7.42799 12.7221V20.3901H4.54999V12.7221C4.54999 12.5762 4.49204 12.4363 4.3889 12.3332C4.28575 12.23 4.14586 12.1721 3.99999 12.1721H1.22599V9.42207H3.99999C4.14586 9.42207 4.28575 9.36412 4.3889 9.26098C4.49204 9.15783 4.54999 9.01794 4.54999 8.87207V6.03007C4.54999 4.60262 4.96332 3.46884 5.71687 2.69214C6.47023 1.91563 7.56939 1.49007 8.95299 1.49007C9.93297 1.49007 10.8204 1.54205 11.375 1.58897V3.9861L9.88499 3.98707L7.97699 9.42207Z" fill="#AF8F53" stroke="#AF8F53" stroke-width="0.1"/>
</svg>
