<svg width="20" height="18" viewBox="0 0 20 18" fill="none" xmlns="http://www.w3.org/2000/svg">
<path d="M18.5525 -0.00308982C18.3118 0.014427 18.0754 0.0709115 17.8528 0.16416H17.8498C17.636 0.24891 16.6198 0.67641 15.0748 1.32441L9.53828 3.65616C5.56553 5.32866 1.66028 6.97566 1.66028 6.97566L1.70678 6.95766C1.70678 6.95766 1.43753 7.04616 1.15628 7.23891C0.982524 7.34948 0.833008 7.49414 0.716778 7.66416C0.578778 7.86666 0.467778 8.17641 0.509028 8.49666C0.576528 9.03816 0.927528 9.36291 1.17953 9.54216C1.43453 9.72366 1.67753 9.80841 1.67753 9.80841H1.68353L5.34578 11.0422C5.51003 11.5694 6.46178 14.6984 6.69053 15.4192C6.82553 15.8497 6.95678 16.1189 7.12103 16.3244C7.20053 16.4294 7.29353 16.5172 7.40528 16.5877C7.46337 16.6215 7.52532 16.6481 7.58978 16.6672L7.55228 16.6582C7.56353 16.6612 7.57253 16.6702 7.58078 16.6732C7.61078 16.6814 7.63103 16.6844 7.66928 16.6904C8.24903 16.8659 8.71478 16.5059 8.71478 16.5059L8.74103 16.4849L10.9033 14.5162L14.5273 17.2964L14.6098 17.3317C15.365 17.6632 16.13 17.4787 16.5343 17.1532C16.9415 16.8254 17.0998 16.4062 17.0998 16.4062L17.126 16.3387L19.9265 1.99191C20.006 1.63791 20.0263 1.30641 19.9385 0.98466C19.848 0.659029 19.6391 0.378966 19.3528 0.19941C19.1123 0.0532463 18.8335 -0.0173034 18.5525 -0.00308982ZM18.4768 1.53441C18.4738 1.58166 18.4828 1.57641 18.4618 1.66716V1.67541L15.6875 15.8729C15.6755 15.8932 15.6553 15.9374 15.5998 15.9817C15.5413 16.0282 15.4948 16.0574 15.251 15.9607L10.8185 12.5624L8.14103 15.0029L8.70353 11.4104L15.9455 4.66041C16.244 4.38291 16.1443 4.32441 16.1443 4.32441C16.1653 3.98391 15.6935 4.22466 15.6935 4.22466L6.56153 9.88191L6.55853 9.86691L2.18153 8.39316V8.39016L2.17028 8.38791C2.17795 8.38536 2.18546 8.38236 2.19278 8.37891L2.21678 8.36691L2.24003 8.35866C2.24003 8.35866 6.14828 6.71166 10.121 5.03916C12.11 4.20141 14.114 3.35766 15.6553 2.70666C17.1965 2.05941 18.3358 1.58466 18.4003 1.55916C18.4618 1.53516 18.4325 1.53516 18.4768 1.53516V1.53441Z" fill="#AF8F53"/>
</svg>
