<svg width="60" height="56" viewBox="0 0 60 56" fill="none" xmlns="http://www.w3.org/2000/svg">
<path d="M57.6959 0L60 2.61333C50.5991 9.58222 45.8986 17.1111 45.8986 25.2C45.8986 32.1067 49.616 38.0178 57.0507 42.9333L44.0553 56C36.5591 50.3378 32.8111 43.6178 32.8111 35.84C32.8111 24.8267 41.106 12.88 57.6959 0ZM24.8848 0L27.1889 2.61333C17.788 9.58222 13.0876 17.1111 13.0876 25.2C13.0876 32.1067 16.7742 38.0178 24.1475 42.9333L11.2442 56C3.74808 50.3378 0 43.6178 0 35.84C0 24.8267 8.29493 12.88 24.8848 0Z" fill="#AF8F53"/>
</svg>
