<svg width="36" height="40" viewBox="0 0 36 40" fill="none" xmlns="http://www.w3.org/2000/svg">
<path d="M0.449718 22.6554C0.441346 30.253 5.38443 36.9693 12.6409 39.2207C19.8974 41.472 27.7738 38.7326 32.0675 32.4644C36.3609 26.1961 36.0694 17.8621 31.3486 11.909L32.3822 10.8754C32.9032 11.3945 33.7458 11.3942 34.2662 10.8745L35.2095 9.93177C35.7276 9.41047 35.7274 8.56854 35.2089 8.04787L32.3811 5.22001C31.8598 4.70214 31.0181 4.70244 30.4971 5.22063L29.5551 6.16367C29.0354 6.68371 29.0349 7.52659 29.5544 8.04726L28.5208 9.08114C26.0012 7.07754 22.9712 5.81944 19.7734 5.4495V3.99789H21.1059C21.8418 3.99696 22.4378 3.40093 22.4386 2.66536V1.33253C22.4378 0.596954 21.8418 0.000930321 21.1059 0H14.4426C13.7071 0.000930321 13.1111 0.596954 13.1101 1.33253V2.66536C13.1111 3.40093 13.7071 3.99696 14.4426 3.99789H15.7755V5.4495C7.04536 6.47346 0.461189 13.8655 0.449718 22.6554ZM17.7744 38.6473C9.20246 38.6476 2.1553 31.8889 1.79775 23.3243C1.4402 14.7601 7.8997 7.43727 16.4416 6.72341C16.8816 6.68681 17.3251 6.66324 17.7744 6.66324C18.2238 6.66324 18.6672 6.6865 19.1069 6.72341C27.6491 7.43727 34.1084 14.7601 33.7511 23.3243C33.3935 31.8889 26.3461 38.6476 17.7744 38.6473ZM31.4392 6.16304L34.2668 8.99029L33.3244 9.933L30.4971 7.10577L31.4392 6.16304ZM30.4965 8.98966L31.4402 9.933L30.4798 10.8934C30.1771 10.5672 29.8626 10.2524 29.5361 9.95006L30.4965 8.98966ZM14.4426 1.33253H21.1059L21.1074 2.66536H14.4426V1.33253ZM17.1079 3.99789H18.4408V5.34747C18.2194 5.3391 17.9976 5.33073 17.7744 5.33073C17.5508 5.33073 17.3294 5.3391 17.1079 5.34747V3.99789Z" fill="white"/>
<path d="M28.1406 12.2894C28.1303 12.2792 28.117 12.2761 28.1064 12.2668C22.3956 6.57233 13.1537 6.57233 7.44284 12.2668C7.4323 12.2761 7.41897 12.2792 7.40873 12.2894C7.39881 12.2994 7.3954 12.3127 7.3861 12.3233C1.69161 18.0341 1.69161 27.2763 7.3861 32.9871C7.3954 32.9977 7.3985 33.011 7.40873 33.021C7.41897 33.0311 7.4323 33.0343 7.44284 33.0436C13.1537 38.7381 22.3956 38.7381 28.1064 33.0436C28.117 33.0346 28.1303 33.0311 28.1406 33.021C28.1504 33.011 28.1539 32.9977 28.1631 32.9871C33.8577 27.2763 33.8577 18.0341 28.1631 12.3233C28.1539 12.3127 28.1504 12.2994 28.1406 12.2894ZM26.7001 12.7875L25.313 14.1746C25.14 14.3417 25.0706 14.5896 25.1313 14.8224C25.1924 15.0556 25.3744 15.2373 25.6073 15.2984C25.8401 15.3594 26.088 15.29 26.2554 15.1167L27.6423 13.7299C29.7063 16.003 30.917 18.9223 31.0673 21.989H29.1021C28.7341 21.989 28.4357 22.2873 28.4357 22.6554C28.4357 23.0231 28.7341 23.3214 29.1021 23.3214H31.0673C30.917 26.3881 29.7063 29.3074 27.6426 31.5806L26.2554 30.1937C25.994 29.9413 25.5784 29.9447 25.3214 30.2019C25.0643 30.4589 25.0609 30.8744 25.3133 31.1359L26.7001 32.523C24.427 34.587 21.5077 35.7977 18.441 35.948V33.9829C18.441 33.6149 18.1427 33.3164 17.7747 33.3164C17.4066 33.3164 17.1083 33.6149 17.1083 33.9829V35.948C14.0416 35.7977 11.1223 34.587 8.84917 32.5233L10.236 31.1361C10.4093 30.969 10.4788 30.7213 10.4177 30.488C10.3569 30.2551 10.1749 30.0731 9.94198 30.0123C9.70878 29.9513 9.46101 30.0207 9.29387 30.194L7.90676 31.5806C5.84301 29.3074 4.63236 26.3881 4.48164 23.3214H6.4471C6.81488 23.3214 7.1132 23.0231 7.1132 22.6554C7.1132 22.2873 6.81488 21.989 6.4471 21.989H4.48164C4.63236 18.9223 5.8427 16.003 7.90676 13.7299L9.29356 15.1167C9.46101 15.29 9.70879 15.3594 9.94169 15.2984C10.1746 15.2373 10.3566 15.0556 10.4177 14.8224C10.4785 14.5896 10.409 14.3417 10.236 14.1746L8.84917 12.7875C13.9057 8.17558 21.6436 8.17558 26.7001 12.7875Z" fill="white"/>
<path d="M17.7747 25.3207C19.116 25.3234 20.2494 24.3274 20.4187 22.9967C20.588 21.6664 19.7402 20.4179 18.4412 20.0849V11.3277C18.4412 10.9599 18.1429 10.6616 17.7747 10.6616C17.4067 10.6616 17.1083 10.9599 17.1083 11.3277V20.0849C15.8093 20.4179 14.9614 21.6664 15.1309 22.9967C15.3002 24.3274 16.4336 25.3234 17.7747 25.3207ZM17.7747 21.3227C18.5106 21.3227 19.1073 21.9194 19.1073 22.6556C19.1073 23.3914 18.5106 23.9882 17.7747 23.9882C17.0386 23.9882 16.4419 23.3914 16.4419 22.6556C16.4432 21.9197 17.0392 21.3237 17.7747 21.3227Z" fill="#ED9121"/>
</svg>
