<svg width="38" height="46" viewBox="0 0 38 46" fill="none" xmlns="http://www.w3.org/2000/svg">
<path d="M0.806493 25.5365C1.21599 26.7973 2.28324 27.6013 3.31599 28.379C3.92305 28.7877 4.4703 29.279 4.94199 29.8385C5.33474 30.4683 5.63767 31.1499 5.84199 31.8635C6.26274 33.077 6.69849 34.331 7.75374 35.0998C8.82549 35.8805 10.1912 35.8895 11.497 35.9195C11.497 35.9195 11.5337 41.3585 11.497 43.1712C11.4617 44.909 13.522 46.193 14.938 45.1423C15.8935 44.4342 18.6835 42.2105 18.6835 42.2105C18.7806 42.161 18.888 42.1352 18.997 42.1352C19.106 42.1352 19.2134 42.161 19.3105 42.2105C19.3105 42.2105 22.1005 44.4342 23.056 45.1423C24.4742 46.1922 26.533 44.909 26.497 43.1712C26.4595 41.3585 26.497 35.9195 26.497 35.9195C27.8035 35.8895 29.1685 35.8805 30.2402 35.0998C31.2955 34.331 31.7312 33.0747 32.152 31.8635C32.3562 31.1499 32.6591 30.4683 33.052 29.8385C33.5237 29.279 34.0709 28.7877 34.678 28.379C35.7107 27.6013 36.778 26.7965 37.1875 25.5358C37.579 24.3283 37.2017 23.075 36.8365 21.8608C36.5774 21.1404 36.4201 20.3874 36.3692 19.6235C36.4201 18.8596 36.5774 18.1066 36.8365 17.3862C37.2017 16.1735 37.579 14.9202 37.1875 13.7113C36.778 12.4513 35.7107 11.6465 34.678 10.8687C34.0709 10.46 33.5237 9.9688 33.052 9.40925C32.6592 8.77941 32.3563 8.09784 32.152 7.38425C31.7342 6.17525 31.3 4.925 30.2432 4.1525C29.1865 3.38 27.8755 3.36275 26.5975 3.33575C25.8477 3.35907 25.0983 3.2783 24.3707 3.09575C23.7058 2.82472 23.0818 2.46249 22.5167 2.0195C21.5012 1.307 20.35 0.5 19 0.5C17.65 0.5 16.4987 1.307 15.4832 2.0195C14.9181 2.46249 14.2942 2.82472 13.6292 3.09575C12.9014 3.27834 12.1518 3.35911 11.4017 3.33575C10.1267 3.36275 8.80224 3.39125 7.75674 4.1525C6.71124 4.91375 6.26574 6.1775 5.84499 7.38875C5.64082 8.10239 5.33788 8.78398 4.94499 9.41375C4.4733 9.9733 3.92605 10.4645 3.31899 10.8733C2.28624 11.651 1.21899 12.4557 0.809493 13.7165C0.417993 14.924 0.795243 16.1772 1.16049 17.3915C1.41821 18.1108 1.57446 18.8626 1.62474 19.625C1.57384 20.3889 1.41657 21.1419 1.15749 21.8622C0.792243 23.075 0.414993 24.3283 0.806493 25.5365ZM25 43.169C25.0123 43.3004 24.9897 43.4327 24.9345 43.5525C24.8793 43.6724 24.7935 43.7755 24.6857 43.8516C24.5779 43.9277 24.4519 43.974 24.3205 43.9858C24.1891 43.9976 24.0569 43.9746 23.9372 43.919L20.191 40.9873C19.8374 40.7546 19.4233 40.6306 19 40.6306C18.5767 40.6306 18.1626 40.7546 17.809 40.9873L14.0627 43.925C13.9431 43.9806 13.8109 44.0036 13.6795 43.9918C13.5481 43.98 13.4221 43.9337 13.3143 43.8576C13.2065 43.7815 13.1207 43.6784 13.0655 43.5585C13.0103 43.4387 12.9877 43.3064 13 43.175V36.0163C13.9186 36.2002 14.774 36.6185 15.4832 37.2305C16.4987 37.943 17.65 38.75 19 38.75C20.35 38.75 21.5012 37.943 22.5167 37.2305C23.2262 36.6188 24.0815 36.2006 25 36.0163V43.169ZM2.59374 16.955C2.28099 15.9178 1.98624 14.9382 2.23374 14.18C2.49624 13.37 3.33249 12.7393 4.21824 12.0718C4.94684 11.5779 5.59925 10.98 6.15474 10.2972C6.63996 9.54987 7.01317 8.73548 7.26249 7.88C7.62324 6.83975 7.96374 5.855 8.64024 5.36525C9.30474 4.88075 10.339 4.859 11.434 4.83575C12.3304 4.86036 13.2257 4.75501 14.092 4.523C14.9002 4.21018 15.6583 3.78062 16.342 3.248C17.2592 2.606 18.1232 2 19 2C19.8767 2 20.7407 2.606 21.6565 3.248C22.3402 3.78062 23.0982 4.21018 23.9065 4.523C24.7725 4.75508 25.6676 4.86018 26.5637 4.835C27.6595 4.859 28.6937 4.88075 29.3582 5.36525C30.0332 5.85725 30.3752 6.83975 30.736 7.88C30.9856 8.73444 31.3588 9.5478 31.8437 10.2943C32.3994 10.9767 33.0515 11.5744 33.7795 12.0687C34.666 12.7355 35.5045 13.3663 35.7647 14.1763C36.0122 14.9375 35.7175 15.9178 35.4047 16.955C35.0993 17.8146 34.9204 18.714 34.8737 19.625C34.9203 20.536 35.0992 21.4355 35.4047 22.295C35.7175 23.3322 36.0122 24.3117 35.7647 25.07C35.5022 25.88 34.666 26.5107 33.7802 27.1782C33.0516 27.6721 32.3992 28.27 31.8437 28.9528C31.3591 29.7002 30.9864 30.5146 30.7375 31.37C30.3767 32.4102 30.0362 33.395 29.3597 33.8848C28.6952 34.3693 27.661 34.391 26.566 34.4143C25.6695 34.3896 24.7742 34.495 23.908 34.727C23.0997 35.0398 22.3417 35.4694 21.658 36.002C20.7407 36.644 19.8767 37.25 19 37.25C18.1232 37.25 17.2592 36.644 16.3435 36.002C15.6598 35.4694 14.9017 35.0398 14.0935 34.727C13.2275 34.4949 12.3324 34.3898 11.4362 34.415C10.3405 34.391 9.30624 34.3693 8.64174 33.8848C7.96674 33.3927 7.62474 32.4102 7.26399 31.37C7.01439 30.5156 6.64119 29.7022 6.15624 28.9558C5.60063 28.2733 4.94853 27.6756 4.22049 27.1813C3.33399 26.5145 2.49549 25.8837 2.23524 25.0737C1.98774 24.3125 2.28249 23.3322 2.59524 22.295C2.90072 21.4354 3.07959 20.536 3.12624 19.625C3.07917 18.7139 2.89979 17.8145 2.59374 16.955Z" fill="white"/>
<path d="M19 33.5C21.7442 33.5 24.4268 32.6863 26.7085 31.1616C28.9903 29.637 30.7687 27.4701 31.8188 24.9347C32.869 22.3994 33.1438 19.6096 32.6084 16.9181C32.073 14.2266 30.7516 11.7544 28.8111 9.8139C26.8707 7.87345 24.3984 6.55198 21.7069 6.01661C19.0154 5.48124 16.2256 5.75601 13.6903 6.80618C11.1549 7.85634 8.98796 9.63474 7.46336 11.9165C5.93876 14.1982 5.125 16.8808 5.125 19.625C5.12917 23.3036 6.59233 26.8303 9.1935 29.4315C11.7947 32.0327 15.3214 33.4958 19 33.5ZM19 7.25001C21.4475 7.25001 23.8401 7.97579 25.8752 9.33557C27.9102 10.6954 29.4964 12.6281 30.433 14.8893C31.3696 17.1505 31.6147 19.6387 31.1372 22.0392C30.6597 24.4398 29.4811 26.6448 27.7504 28.3755C26.0198 30.1061 23.8148 31.2847 21.4142 31.7622C19.0137 32.2397 16.5255 31.9946 14.2643 31.058C12.0031 30.1214 10.0703 28.5352 8.71056 26.5002C7.35078 24.4651 6.625 22.0725 6.625 19.625C6.62877 16.3441 7.93377 13.1987 10.2537 10.8787C12.5737 8.55878 15.7191 7.25378 19 7.25001Z" fill="white"/>
<path d="M14.5 18.5C15.0933 18.5 15.6734 18.3241 16.1667 17.9944C16.6601 17.6648 17.0446 17.1962 17.2716 16.6481C17.4987 16.0999 17.5581 15.4967 17.4424 14.9147C17.3266 14.3328 17.0409 13.7982 16.6213 13.3787C16.2018 12.9591 15.6672 12.6734 15.0853 12.5576C14.5033 12.4419 13.9001 12.5013 13.352 12.7284C12.8038 12.9554 12.3352 13.3399 12.0056 13.8333C11.6759 14.3266 11.5 14.9067 11.5 15.5C11.5 16.2957 11.8161 17.0587 12.3787 17.6213C12.9413 18.1839 13.7044 18.5 14.5 18.5ZM14.5 14C14.7967 14 15.0867 14.088 15.3334 14.2528C15.58 14.4176 15.7723 14.6519 15.8858 14.926C15.9994 15.2001 16.0291 15.5017 15.9712 15.7926C15.9133 16.0836 15.7704 16.3509 15.5607 16.5607C15.3509 16.7704 15.0836 16.9133 14.7926 16.9712C14.5017 17.0291 14.2001 16.9994 13.926 16.8858C13.6519 16.7723 13.4176 16.58 13.2528 16.3334C13.088 16.0867 13 15.7967 13 15.5C13 15.1022 13.158 14.7206 13.4393 14.4393C13.7206 14.158 14.1022 14 14.5 14Z" fill="#ED9121"/>
<path d="M23.5 21.5C22.9067 21.5 22.3266 21.6759 21.8333 22.0056C21.3399 22.3352 20.9554 22.8038 20.7284 23.3519C20.5013 23.9001 20.4419 24.5033 20.5576 25.0853C20.6734 25.6672 20.9591 26.2018 21.3787 26.6213C21.7982 27.0409 22.3328 27.3266 22.9147 27.4424C23.4967 27.5581 24.0999 27.4987 24.6481 27.2716C25.1962 27.0446 25.6648 26.6601 25.9944 26.1667C26.3241 25.6734 26.5 25.0933 26.5 24.5C26.5 23.7044 26.1839 22.9413 25.6213 22.3787C25.0587 21.8161 24.2957 21.5 23.5 21.5ZM23.5 26C23.2033 26 22.9133 25.912 22.6666 25.7472C22.42 25.5824 22.2277 25.3481 22.1142 25.074C22.0007 24.7999 21.9709 24.4983 22.0288 24.2074C22.0867 23.9164 22.2296 23.6491 22.4393 23.4393C22.6491 23.2296 22.9164 23.0867 23.2074 23.0288C23.4983 22.9709 23.7999 23.0006 24.074 23.1142C24.3481 23.2277 24.5824 23.42 24.7472 23.6666C24.912 23.9133 25 24.2033 25 24.5C25 24.8978 24.842 25.2794 24.5607 25.5607C24.2794 25.842 23.8978 26 23.5 26Z" fill="#ED9121"/>
<path d="M12.1616 24.5C12.1611 24.9624 12.2979 25.4145 12.5548 25.7989C12.8117 26.1833 13.1771 26.4827 13.6046 26.6591C14.032 26.8354 14.5022 26.8807 14.9554 26.7893C15.4087 26.6979 15.8245 26.4738 16.1501 26.1455L25.0909 17.0915C25.5082 16.667 25.7421 16.0956 25.7421 15.5004C25.7421 14.9051 25.5082 14.3337 25.0909 13.9093C24.6612 13.5034 24.0926 13.2774 23.5016 13.2774C22.9106 13.2774 22.342 13.5034 21.9124 13.9093L12.8546 22.85C12.6356 23.0655 12.4616 23.3223 12.3427 23.6055C12.2237 23.8887 12.1622 24.1928 12.1616 24.5ZM13.9084 23.915L22.9706 14.969C23.0392 14.8941 23.1223 14.8338 23.2148 14.7919C23.3074 14.7501 23.4075 14.7274 23.509 14.7254C23.6106 14.7234 23.7115 14.742 23.8057 14.7802C23.8998 14.8183 23.9852 14.8752 24.0567 14.9474C24.1282 15.0195 24.1843 15.1055 24.2216 15.2C24.2589 15.2945 24.2766 15.3955 24.2737 15.4971C24.2707 15.5986 24.2471 15.6985 24.2044 15.7907C24.1617 15.8828 24.1007 15.9654 24.0251 16.0333L15.0851 25.091C14.9292 25.247 14.7176 25.3348 14.497 25.3348C14.2764 25.3349 14.0648 25.2473 13.9087 25.0914C13.7527 24.9354 13.665 24.7239 13.6649 24.5033C13.6649 24.2827 13.7524 24.071 13.9084 23.915Z" fill="#ED9121"/>
</svg>
