<svg width="40" height="38" viewBox="0 0 40 38" fill="none" xmlns="http://www.w3.org/2000/svg">
<path d="M28.8126 6.57812C29.1095 8.09375 30.4376 9.20313 31.9845 9.20313C33.5314 9.20313 34.8595 8.09375 35.1564 6.57812L35.547 4.59375C35.672 3.625 35.3907 2.65625 34.7501 1.92188C34.1095 1.1875 33.1876 0.765625 32.2189 0.765625H31.7657C30.797 0.765625 29.8751 1.1875 29.2345 1.92188C28.5939 2.65625 28.297 3.625 28.4376 4.64062L28.8126 6.57812ZM30.4064 2.95312C30.7501 2.5625 31.2501 2.32812 31.7814 2.32812H32.2345C32.7657 2.32812 33.2501 2.54687 33.6095 2.95312C33.9532 3.34375 34.1095 3.875 34.047 4.34375L33.672 6.28125C33.5157 7.07812 32.8282 7.64062 32.0157 7.64062C31.2032 7.64062 30.5157 7.0625 30.3595 6.28125L29.9845 4.39062C29.9064 3.875 30.0626 3.34375 30.4064 2.95312Z" fill="white"/>
<path d="M39.2654 16.875L38.3748 12.6562C38.2654 12.1406 37.8904 11.7188 37.406 11.5469L34.3279 10.4531L32.0154 12.7656L29.7029 10.4531L26.6248 11.5469C26.1404 11.7188 25.7654 12.1406 25.656 12.6562L24.7654 16.875C24.6717 17.2969 24.9373 17.7031 25.3592 17.7969C25.781 17.8906 26.1873 17.625 26.281 17.2031L27.156 13.0156L29.3123 12.25L32.031 14.9687L34.7498 12.25L36.8748 12.9844L37.7654 17.2031C37.8435 17.5625 38.1717 17.8125 38.531 17.8125C38.5779 17.8125 38.6404 17.8125 38.6873 17.7969C39.0779 17.7188 39.3435 17.2969 39.2654 16.875Z" fill="white"/>
<path d="M4.82825 6.57812C5.12512 8.09375 6.45325 9.20313 8.00012 9.20313C9.547 9.20313 10.8751 8.09375 11.172 6.57812L11.5626 4.59375C11.6876 3.625 11.4064 2.65625 10.7657 1.92188C10.1251 1.1875 9.20325 0.765625 8.2345 0.765625H7.78137C6.81262 0.765625 5.89075 1.1875 5.25012 1.92188C4.6095 2.65625 4.31262 3.625 4.45325 4.64062L4.82825 6.57812ZM6.422 2.95312C6.76575 2.5625 7.26575 2.32812 7.797 2.32812H8.25012C8.78137 2.32812 9.26575 2.54687 9.62512 2.95312C9.96887 3.34375 10.1251 3.875 10.0626 4.34375L9.68762 6.28125C9.53137 7.07812 8.84387 7.64062 8.03137 7.64062C7.21887 7.64062 6.53137 7.0625 6.37512 6.28125L6.00012 4.39062C5.90637 3.875 6.07825 3.34375 6.422 2.95312Z" fill="white"/>
<path d="M10.7342 12.25L12.8592 12.9844L13.7498 17.2031C13.8279 17.5625 14.156 17.8125 14.5154 17.8125C14.5623 17.8125 14.6248 17.8125 14.6717 17.7969C15.0935 17.7031 15.3592 17.2969 15.2654 16.875L14.3748 12.6562C14.2654 12.1406 13.8904 11.7188 13.406 11.5469L10.3279 10.4531L7.99978 12.7812L5.68728 10.4531L2.60915 11.5469C2.12478 11.7188 1.74978 12.1406 1.6404 12.6562L0.749777 16.875C0.656027 17.2969 0.921652 17.7031 1.34353 17.7969C1.7654 17.8906 2.17165 17.625 2.2654 17.2031L3.12478 13.0156L5.28103 12.25L7.99978 14.9687L10.7342 12.25Z" fill="white"/>
<path d="M19.9996 28.6094C21.5465 28.6094 22.8746 27.5 23.1715 25.9844L23.5621 24C23.6871 23.0312 23.4059 22.0625 22.7653 21.3281C22.1246 20.5937 21.2028 20.1719 20.234 20.1719H19.7809C18.8121 20.1719 17.8903 20.5937 17.2496 21.3281C16.609 22.0625 16.3121 23.0313 16.4528 24.0469L16.8278 25.9844C17.1246 27.5 18.4528 28.6094 19.9996 28.6094ZM18.4059 22.3594C18.7496 21.9688 19.2496 21.7344 19.7809 21.7344H20.234C20.7653 21.7344 21.2496 21.9531 21.609 22.3594C21.9528 22.75 22.109 23.2812 22.0465 23.75L21.6715 25.6875C21.5153 26.4844 20.8278 27.0469 20.0153 27.0469C19.2028 27.0469 18.5153 26.4688 18.359 25.6875L17.984 23.7969C17.9059 23.2812 18.0621 22.75 18.4059 22.3594Z" fill="white"/>
<path d="M26.3748 32.0781C26.2654 31.5625 25.8904 31.1406 25.406 30.9688L22.3279 29.875L19.9998 32.1875L17.6873 29.875L14.6092 30.9688C14.1248 31.1406 13.7498 31.5625 13.6404 32.0781L12.7498 36.2969C12.656 36.7187 12.9217 37.125 13.3435 37.2188C13.7654 37.3125 14.1717 37.0469 14.2654 36.625L15.1248 32.4375L17.281 31.6719L19.9998 34.3906L22.7185 31.6719L24.8435 32.4062L25.7341 36.625C25.8123 36.9844 26.1404 37.2344 26.4998 37.2344C26.5467 37.2344 26.6092 37.2344 26.656 37.2188C27.0779 37.125 27.3435 36.7187 27.2498 36.2969L26.3748 32.0781Z" fill="white"/>
<path d="M33.3433 19.8594C32.9058 19.8125 32.5308 20.125 32.4995 20.5625C32.187 23.7969 30.6402 26.7344 28.1714 28.8437C27.8433 29.125 27.812 29.6094 28.0777 29.9375C28.2339 30.125 28.4527 30.2031 28.6714 30.2031C28.8433 30.2031 29.0308 30.1406 29.1714 30.0156C31.9527 27.6406 33.687 24.3437 34.0464 20.7031C34.0777 20.2812 33.7652 19.9062 33.3433 19.8594Z" fill="#ED9121"/>
<path d="M7.51485 20.5625C7.46797 20.1406 7.09297 19.8281 6.6711 19.8594C6.24922 19.9062 5.93672 20.2812 5.96797 20.7031C6.32735 24.3437 8.06172 27.6562 10.843 30.0156C10.9836 30.1406 11.1711 30.2031 11.343 30.2031C11.5617 30.2031 11.7805 30.1094 11.9367 29.9219C12.218 29.5937 12.1711 29.1094 11.843 28.8281C9.37422 26.7344 7.82735 23.7969 7.51485 20.5625Z" fill="#ED9121"/>
<path d="M15.8906 7.45312C18.5 6.53125 21.5 6.53125 24.125 7.45312C24.2031 7.48437 24.2969 7.5 24.3906 7.5C24.7031 7.5 25.0156 7.29687 25.125 6.98437C25.2656 6.57812 25.0625 6.14062 24.6562 6C21.7031 4.95312 18.3437 4.95312 15.3906 6C14.9844 6.14062 14.7812 6.59375 14.9219 6.98437C15.0312 7.39062 15.4844 7.59375 15.8906 7.45312Z" fill="#ED9121"/>
</svg>
