<svg width="64" height="64" viewBox="0 0 64 64" fill="none" xmlns="http://www.w3.org/2000/svg">
<path d="M7.74167 35.382C8.28767 37.063 9.71067 38.135 11.0877 39.172C11.8971 39.717 12.6267 40.3719 13.2557 41.118C13.7793 41.9578 14.1832 42.8666 14.4557 43.818C15.0167 45.436 15.5977 47.108 17.0047 48.133C18.4337 49.174 20.2547 49.186 21.9957 49.226C21.9957 49.226 22.0447 56.478 21.9957 58.895C21.9487 61.212 24.6957 62.924 26.5837 61.523C27.8577 60.579 31.5777 57.614 31.5777 57.614C31.7071 57.548 31.8504 57.5136 31.9957 57.5136C32.141 57.5136 32.2842 57.548 32.4137 57.614C32.4137 57.614 36.1337 60.579 37.4077 61.523C39.2987 62.923 42.0437 61.212 41.9957 58.895C41.9457 56.478 41.9957 49.226 41.9957 49.226C43.7377 49.186 45.5577 49.174 46.9867 48.133C48.3937 47.108 48.9747 45.433 49.5357 43.818C49.8079 42.8665 50.2118 41.9577 50.7357 41.118C51.3646 40.3719 52.0942 39.717 52.9037 39.172C54.2807 38.135 55.7037 37.062 56.2497 35.381C56.7717 33.771 56.2687 32.1 55.7817 30.481C55.4362 29.5205 55.2265 28.5165 55.1587 27.498C55.2265 26.4795 55.4362 25.4755 55.7817 24.515C56.2687 22.898 56.7717 21.227 56.2497 19.615C55.7037 17.935 54.2807 16.862 52.9037 15.825C52.0942 15.28 51.3646 14.6251 50.7357 13.879C50.212 13.0392 49.8081 12.1304 49.5357 11.179C48.9787 9.567 48.3997 7.9 46.9907 6.87C45.5817 5.84 43.8337 5.817 42.1297 5.781C41.13 5.8121 40.1308 5.7044 39.1607 5.461C38.2741 5.09962 37.4421 4.61666 36.6887 4.026C35.3347 3.076 33.7997 2 31.9997 2C30.1997 2 28.6647 3.076 27.3107 4.026C26.5572 4.61666 25.7252 5.09962 24.8387 5.461C23.8682 5.70446 22.8687 5.81215 21.8687 5.781C20.1687 5.817 18.4027 5.855 17.0087 6.87C15.6147 7.885 15.0207 9.57 14.4597 11.185C14.1874 12.1365 13.7835 13.0453 13.2597 13.885C12.6307 14.6311 11.9011 15.286 11.0917 15.831C9.71467 16.868 8.29167 17.941 7.74567 19.622C7.22367 21.232 7.72666 22.903 8.21366 24.522C8.55728 25.4811 8.76562 26.4834 8.83267 27.5C8.76479 28.5185 8.5551 29.5225 8.20967 30.483C7.72267 32.1 7.21967 33.771 7.74167 35.382ZM39.9997 58.892C40.016 59.0672 39.9859 59.2435 39.9123 59.4033C39.8388 59.5631 39.7243 59.7007 39.5806 59.8021C39.4369 59.9036 39.2689 59.9653 39.0937 59.9811C38.9185 59.9968 38.7422 59.9661 38.5827 59.892L33.5877 55.983C33.1162 55.6728 32.5641 55.5074 31.9997 55.5074C31.4352 55.5074 30.8832 55.6728 30.4117 55.983L25.4167 59.9C25.2571 59.9741 25.0808 60.0048 24.9056 59.9891C24.7304 59.9733 24.5625 59.9116 24.4187 59.8101C24.275 59.7087 24.1606 59.5711 24.087 59.4113C24.0134 59.2515 23.9833 59.0752 23.9997 58.9V49.355C25.2244 49.6003 26.365 50.158 27.3107 50.974C28.6647 51.924 30.1997 53 31.9997 53C33.7997 53 35.3347 51.924 36.6887 50.974C37.6346 50.1584 38.7751 49.6007 39.9997 49.355V58.892ZM10.1247 23.94C9.70767 22.557 9.31467 21.251 9.64467 20.24C9.99467 19.16 11.1097 18.319 12.2907 17.429C13.2621 16.7705 14.132 15.9734 14.8727 15.063C15.5196 14.0665 16.0172 12.9806 16.3497 11.84C16.8307 10.453 17.2847 9.14 18.1867 8.487C19.0727 7.841 20.4517 7.812 21.9117 7.781C23.1069 7.81381 24.3007 7.67335 25.4557 7.364C26.5333 6.94691 27.5441 6.37416 28.4557 5.664C29.6787 4.808 30.8307 4 31.9997 4C33.1687 4 34.3207 4.808 35.5417 5.664C36.4533 6.37416 37.464 6.94691 38.5417 7.364C39.6963 7.67344 40.8898 7.81357 42.0847 7.78C43.5457 7.812 44.9247 7.841 45.8107 8.487C46.7107 9.143 47.1667 10.453 47.6477 11.84C47.9805 12.9793 48.4781 14.0637 49.1247 15.059C49.8655 15.9689 50.735 16.7659 51.7057 17.425C52.8877 18.314 54.0057 19.155 54.3527 20.235C54.6827 21.25 54.2897 22.557 53.8727 23.94C53.4654 25.0861 53.2269 26.2853 53.1647 27.5C53.2268 28.7147 53.4653 29.9139 53.8727 31.06C54.2897 32.443 54.6827 33.749 54.3527 34.76C54.0027 35.84 52.8877 36.681 51.7067 37.571C50.7352 38.2295 49.8653 39.0266 49.1247 39.937C48.4784 40.9336 47.9815 42.0195 47.6497 43.16C47.1687 44.547 46.7147 45.86 45.8127 46.513C44.9267 47.159 43.5477 47.188 42.0877 47.219C40.8924 47.1862 39.6987 47.3267 38.5437 47.636C37.466 48.0531 36.4553 48.6258 35.5437 49.336C34.3207 50.192 33.1687 51 31.9997 51C30.8307 51 29.6787 50.192 28.4577 49.336C27.5461 48.6258 26.5353 48.0531 25.4577 47.636C24.303 47.3266 23.1096 47.1864 21.9147 47.22C20.4537 47.188 19.0747 47.159 18.1887 46.513C17.2887 45.857 16.8327 44.547 16.3517 43.16C16.0189 42.0207 15.5213 40.9363 14.8747 39.941C14.1339 39.0311 13.2644 38.2341 12.2937 37.575C11.1117 36.686 9.99367 35.845 9.64667 34.765C9.31667 33.75 9.70967 32.443 10.1267 31.06C10.534 29.9139 10.7725 28.7147 10.8347 27.5C10.7719 26.2852 10.5327 25.086 10.1247 23.94Z" fill="black"/>
<path d="M32 46C35.659 46 39.2357 44.915 42.278 42.8822C45.3204 40.8494 47.6915 37.9601 49.0918 34.5797C50.492 31.1992 50.8584 27.4795 50.1445 23.8908C49.4307 20.3022 47.6687 17.0058 45.0815 14.4185C42.4942 11.8313 39.1978 10.0693 35.6092 9.35548C32.0205 8.64165 28.3008 9.00802 24.9204 10.4082C21.5399 11.8085 18.6506 14.1796 16.6178 17.222C14.585 20.2643 13.5 23.8411 13.5 27.5C13.5056 32.4048 15.4564 37.1071 18.9247 40.5753C22.3929 44.0436 27.0952 45.9944 32 46ZM32 11C35.2634 11 38.4535 11.9677 41.1669 13.7808C43.8803 15.5938 45.9952 18.1708 47.244 21.1857C48.4929 24.2007 48.8196 27.5183 48.183 30.719C47.5463 33.9197 45.9748 36.8597 43.6673 39.1673C41.3597 41.4748 38.4197 43.0463 35.219 43.683C32.0183 44.3196 28.7007 43.9929 25.6857 42.744C22.6707 41.4952 20.0938 39.3803 18.2808 36.6669C16.4677 33.9535 15.5 30.7634 15.5 27.5C15.505 23.1255 17.245 18.9316 20.3383 15.8383C23.4316 12.745 27.6255 11.005 32 11Z" fill="black"/>
<path d="M26 26C26.7911 26 27.5645 25.7654 28.2223 25.3259C28.8801 24.8864 29.3928 24.2616 29.6955 23.5307C29.9983 22.7998 30.0775 21.9956 29.9231 21.2196C29.7688 20.4437 29.3878 19.731 28.8284 19.1716C28.269 18.6122 27.5563 18.2312 26.7804 18.0769C26.0044 17.9225 25.2002 18.0017 24.4693 18.3045C23.7384 18.6072 23.1136 19.1199 22.6741 19.7777C22.2346 20.4355 22 21.2089 22 22C22 23.0609 22.4214 24.0783 23.1716 24.8284C23.9217 25.5786 24.9391 26 26 26ZM26 20C26.3956 20 26.7822 20.1173 27.1111 20.3371C27.44 20.5568 27.6964 20.8692 27.8478 21.2346C27.9991 21.6001 28.0387 22.0022 27.9616 22.3902C27.8844 22.7781 27.6939 23.1345 27.4142 23.4142C27.1345 23.6939 26.7781 23.8844 26.3902 23.9616C26.0022 24.0387 25.6001 23.9991 25.2346 23.8478C24.8692 23.6964 24.5568 23.44 24.3371 23.1111C24.1173 22.7822 24 22.3956 24 22C24 21.4696 24.2107 20.9609 24.5858 20.5858C24.9609 20.2107 25.4696 20 26 20Z" fill="#ED9121"/>
<path d="M38 30C37.2089 30 36.4355 30.2346 35.7777 30.6741C35.1199 31.1136 34.6072 31.7384 34.3045 32.4693C34.0017 33.2002 33.9225 34.0044 34.0769 34.7804C34.2312 35.5563 34.6122 36.269 35.1716 36.8284C35.731 37.3878 36.4437 37.7688 37.2196 37.9231C37.9956 38.0775 38.7998 37.9983 39.5307 37.6955C40.2616 37.3928 40.8864 36.8801 41.3259 36.2223C41.7654 35.5645 42 34.7911 42 34C42 32.9391 41.5786 31.9217 40.8284 31.1716C40.0783 30.4214 39.0609 30 38 30ZM38 36C37.6044 36 37.2178 35.8827 36.8889 35.6629C36.56 35.4432 36.3036 35.1308 36.1522 34.7654C36.0009 34.3999 35.9613 33.9978 36.0384 33.6098C36.1156 33.2219 36.3061 32.8655 36.5858 32.5858C36.8655 32.3061 37.2219 32.1156 37.6098 32.0384C37.9978 31.9613 38.3999 32.0009 38.7654 32.1522C39.1308 32.3036 39.4432 32.56 39.6629 32.8889C39.8827 33.2178 40 33.6044 40 34C40 34.5304 39.7893 35.0391 39.4142 35.4142C39.0391 35.7893 38.5304 36 38 36Z" fill="#ED9121"/>
<path d="M22.8816 34C22.8808 34.6165 23.0633 35.2193 23.4059 35.7319C23.7484 36.2445 24.2356 36.6437 24.8055 36.8788C25.3754 37.1139 26.0023 37.1743 26.6067 37.0524C27.211 36.9305 27.7654 36.6317 28.1996 36.194L40.1206 24.122C40.677 23.5561 40.9888 22.7942 40.9888 22.0005C40.9888 21.2068 40.677 20.445 40.1206 19.879C39.5477 19.3379 38.7896 19.0365 38.0016 19.0365C37.2136 19.0365 36.4555 19.3379 35.8826 19.879L23.8056 31.8C23.5136 32.0873 23.2816 32.4297 23.123 32.8074C22.9644 33.185 22.8823 33.5904 22.8816 34ZM25.2106 33.22L37.2936 21.292C37.385 21.1921 37.4958 21.1118 37.6192 21.0559C37.7426 21.0001 37.8761 20.9699 38.0115 20.9672C38.1469 20.9645 38.2815 20.9894 38.407 21.0402C38.5325 21.0911 38.6464 21.167 38.7418 21.2632C38.8371 21.3594 38.9119 21.474 38.9616 21.6C39.0113 21.726 39.0349 21.8607 39.031 21.9961C39.027 22.1315 38.9956 22.2647 38.9387 22.3876C38.8817 22.5105 38.8004 22.6205 38.6996 22.711L26.7796 34.788C26.5717 34.9961 26.2896 35.113 25.9954 35.1131C25.7013 35.1132 25.4192 34.9964 25.2111 34.7885C25.003 34.5806 24.8861 34.2985 24.886 34.0044C24.8859 33.7102 25.0027 33.4281 25.2106 33.22Z" fill="#ED9121"/>
</svg>
