<svg width="1600" height="369" viewBox="0 0 1600 369" fill="none" xmlns="http://www.w3.org/2000/svg">
<path d="M67.0422 -31L-13 48.975" stroke="white" stroke-opacity="0.15"/>
<path d="M67.043 -31L147.085 48.975" stroke="white" stroke-opacity="0.15"/>
<path d="M147.084 -31L227.126 48.975" stroke="white" stroke-opacity="0.15"/>
<path d="M227.127 -31L307.169 48.975" stroke="white" stroke-opacity="0.15"/>
<path d="M307.168 -31L387.21 48.975" stroke="white" stroke-opacity="0.15"/>
<path d="M387.211 -31L467.253 48.975" stroke="white" stroke-opacity="0.15"/>
<path d="M467.254 -31L547.296 48.975" stroke="white" stroke-opacity="0.15"/>
<path d="M547.295 -31L627.337 48.975" stroke="white" stroke-opacity="0.15"/>
<path d="M707.38 -31L627.338 48.975" stroke="white" stroke-opacity="0.15"/>
<path d="M787.421 -31L707.379 48.975" stroke="white" stroke-opacity="0.15"/>
<path d="M867.464 -31L787.422 48.975" stroke="white" stroke-opacity="0.15"/>
<path d="M867.465 -31L947.507 48.975" stroke="white" stroke-opacity="0.15"/>
<path d="M947.506 -31L1027.55 48.975" stroke="white" stroke-opacity="0.15"/>
<path d="M1027.55 -31L1107.59 48.975" stroke="white" stroke-opacity="0.15"/>
<path d="M1107.59 -31L1187.63 48.975" stroke="white" stroke-opacity="0.15"/>
<path d="M1187.63 -31L1267.68 48.975" stroke="white" stroke-opacity="0.15"/>
<path d="M1347.72 -31L1267.68 48.975" stroke="white" stroke-opacity="0.15"/>
<path d="M1347.72 -31L1427.76 48.975" stroke="white" stroke-opacity="0.15"/>
<path d="M1427.76 -31L1507.8 48.975" stroke="white" stroke-opacity="0.15"/>
<path d="M1507.8 -31L1587.84 48.975" stroke="white" stroke-opacity="0.15"/>
<path d="M1587.84 -31L1667.89 48.975" stroke="white" stroke-opacity="0.15"/>
<path opacity="0.92" d="M67.0422 48.9746L-13 128.95" stroke="white" stroke-opacity="0.15"/>
<path opacity="0.92" d="M67.043 48.9746L147.085 128.95" stroke="white" stroke-opacity="0.15"/>
<path opacity="0.92" d="M227.126 48.9746L147.084 128.95" stroke="white" stroke-opacity="0.15"/>
<path opacity="0.92" d="M227.127 48.9746L307.169 128.95" stroke="white" stroke-opacity="0.15"/>
<path opacity="0.92" d="M387.21 48.9746L307.168 128.95" stroke="white" stroke-opacity="0.15"/>
<path opacity="0.92" d="M467.253 48.9746L387.211 128.95" stroke="white" stroke-opacity="0.15"/>
<path opacity="0.92" d="M547.296 48.9746L467.254 128.95" stroke="white" stroke-opacity="0.15"/>
<path opacity="0.92" d="M547.295 48.9746L627.337 128.95" stroke="white" stroke-opacity="0.15"/>
<path opacity="0.92" d="M627.338 48.9746L707.38 128.95" stroke="white" stroke-opacity="0.15"/>
<path opacity="0.92" d="M787.421 48.9746L707.379 128.95" stroke="white" stroke-opacity="0.15"/>
<path opacity="0.92" d="M787.422 48.9746L867.464 128.95" stroke="white" stroke-opacity="0.15"/>
<path opacity="0.92" d="M947.507 48.9746L867.465 128.95" stroke="white" stroke-opacity="0.15"/>
<path opacity="0.92" d="M947.506 48.9746L1027.55 128.95" stroke="white" stroke-opacity="0.15"/>
<path opacity="0.92" d="M1027.55 48.9746L1107.59 128.95" stroke="white" stroke-opacity="0.15"/>
<path opacity="0.92" d="M1187.63 48.9746L1107.59 128.95" stroke="white" stroke-opacity="0.15"/>
<path opacity="0.92" d="M1187.63 48.9746L1267.68 128.95" stroke="white" stroke-opacity="0.15"/>
<path opacity="0.92" d="M1267.68 48.9746L1347.72 128.95" stroke="white" stroke-opacity="0.15"/>
<path opacity="0.92" d="M1427.76 48.9746L1347.72 128.95" stroke="white" stroke-opacity="0.15"/>
<path opacity="0.92" d="M1507.8 48.9746L1427.76 128.95" stroke="white" stroke-opacity="0.15"/>
<path opacity="0.92" d="M1587.84 48.9746L1507.8 128.95" stroke="white" stroke-opacity="0.15"/>
<path opacity="0.92" d="M1587.84 48.9746L1667.89 128.95" stroke="white" stroke-opacity="0.15"/>
<path opacity="0.83" d="M-13 128.95L67.0422 208.925" stroke="white" stroke-opacity="0.15"/>
<path opacity="0.83" d="M67.043 128.95L147.085 208.925" stroke="white" stroke-opacity="0.15"/>
<path opacity="0.83" d="M227.126 128.95L147.084 208.925" stroke="white" stroke-opacity="0.15"/>
<path opacity="0.83" d="M307.169 128.95L227.127 208.925" stroke="white" stroke-opacity="0.15"/>
<path opacity="0.83" d="M387.21 128.95L307.168 208.925" stroke="white" stroke-opacity="0.15"/>
<path opacity="0.83" d="M387.211 128.95L467.253 208.925" stroke="white" stroke-opacity="0.15"/>
<path opacity="0.83" d="M467.254 128.95L547.296 208.925" stroke="white" stroke-opacity="0.15"/>
<path opacity="0.83" d="M547.295 128.95L627.337 208.925" stroke="white" stroke-opacity="0.15"/>
<path opacity="0.83" d="M627.338 128.95L707.38 208.925" stroke="white" stroke-opacity="0.15"/>
<path opacity="0.83" d="M787.421 128.95L707.379 208.925" stroke="white" stroke-opacity="0.15"/>
<path opacity="0.83" d="M867.464 128.95L787.422 208.925" stroke="white" stroke-opacity="0.15"/>
<path opacity="0.83" d="M947.507 128.95L867.465 208.925" stroke="white" stroke-opacity="0.15"/>
<path opacity="0.83" d="M1027.55 128.95L947.506 208.925" stroke="white" stroke-opacity="0.15"/>
<path opacity="0.83" d="M1027.55 128.95L1107.59 208.925" stroke="white" stroke-opacity="0.15"/>
<path opacity="0.83" d="M1187.63 128.95L1107.59 208.925" stroke="white" stroke-opacity="0.15"/>
<path opacity="0.83" d="M1267.68 128.95L1187.63 208.925" stroke="white" stroke-opacity="0.15"/>
<path opacity="0.83" d="M1267.68 128.95L1347.72 208.925" stroke="white" stroke-opacity="0.15"/>
<path opacity="0.83" d="M1347.72 128.95L1427.76 208.925" stroke="white" stroke-opacity="0.15"/>
<path opacity="0.83" d="M1507.8 128.95L1427.76 208.925" stroke="white" stroke-opacity="0.15"/>
<path opacity="0.83" d="M1507.8 128.95L1587.84 208.925" stroke="white" stroke-opacity="0.15"/>
<path opacity="0.83" d="M1667.89 128.95L1587.84 208.925" stroke="white" stroke-opacity="0.15"/>
<path opacity="0.75" d="M-13 208.925L67.0422 288.9" stroke="white" stroke-opacity="0.15"/>
<path opacity="0.75" d="M67.043 208.925L147.085 288.9" stroke="white" stroke-opacity="0.15"/>
<path opacity="0.75" d="M227.126 208.925L147.084 288.9" stroke="white" stroke-opacity="0.15"/>
<path opacity="0.75" d="M307.169 208.925L227.127 288.9" stroke="white" stroke-opacity="0.15"/>
<path opacity="0.75" d="M307.168 208.925L387.21 288.9" stroke="white" stroke-opacity="0.15"/>
<path opacity="0.75" d="M467.253 208.925L387.211 288.9" stroke="white" stroke-opacity="0.15"/>
<path opacity="0.75" d="M467.254 208.925L547.296 288.9" stroke="white" stroke-opacity="0.15"/>
<path opacity="0.75" d="M547.295 208.925L627.337 288.9" stroke="white" stroke-opacity="0.15"/>
<path opacity="0.75" d="M707.38 208.925L627.338 288.9" stroke="white" stroke-opacity="0.15"/>
<path opacity="0.75" d="M787.421 208.925L707.379 288.9" stroke="white" stroke-opacity="0.15"/>
<path opacity="0.75" d="M787.422 208.925L867.464 288.9" stroke="white" stroke-opacity="0.15"/>
<path opacity="0.75" d="M947.507 208.925L867.465 288.9" stroke="white" stroke-opacity="0.15"/>
<path opacity="0.75" d="M947.506 208.925L1027.55 288.9" stroke="white" stroke-opacity="0.15"/>
<path opacity="0.75" d="M1107.59 208.925L1027.55 288.9" stroke="white" stroke-opacity="0.15"/>
<path opacity="0.75" d="M1107.59 208.925L1187.63 288.9" stroke="white" stroke-opacity="0.15"/>
<path opacity="0.75" d="M1267.68 208.925L1187.63 288.9" stroke="white" stroke-opacity="0.15"/>
<path opacity="0.75" d="M1267.68 208.925L1347.72 288.9" stroke="white" stroke-opacity="0.15"/>
<path opacity="0.75" d="M1427.76 208.925L1347.72 288.9" stroke="white" stroke-opacity="0.15"/>
<path opacity="0.75" d="M1427.76 208.925L1507.8 288.9" stroke="white" stroke-opacity="0.15"/>
<path opacity="0.75" d="M1507.8 208.925L1587.84 288.9" stroke="white" stroke-opacity="0.15"/>
<path opacity="0.75" d="M1667.89 208.925L1587.84 288.9" stroke="white" stroke-opacity="0.15"/>
<path opacity="0.67" d="M67.0422 288.9L-13 368.875" stroke="white" stroke-opacity="0.15"/>
<path opacity="0.67" d="M147.085 288.9L67.043 368.875" stroke="white" stroke-opacity="0.15"/>
<path opacity="0.67" d="M227.126 288.9L147.084 368.875" stroke="white" stroke-opacity="0.15"/>
<path opacity="0.67" d="M307.169 288.9L227.127 368.875" stroke="white" stroke-opacity="0.15"/>
<path opacity="0.67" d="M387.21 288.9L307.168 368.875" stroke="white" stroke-opacity="0.15"/>
<path opacity="0.67" d="M387.211 288.9L467.253 368.875" stroke="white" stroke-opacity="0.15"/>
<path opacity="0.67" d="M547.296 288.9L467.254 368.875" stroke="white" stroke-opacity="0.15"/>
<path opacity="0.67" d="M627.337 288.9L547.295 368.875" stroke="white" stroke-opacity="0.15"/>
<path opacity="0.67" d="M627.338 288.9L707.38 368.875" stroke="white" stroke-opacity="0.15"/>
<path opacity="0.67" d="M707.379 288.9L787.421 368.875" stroke="white" stroke-opacity="0.15"/>
<path opacity="0.67" d="M787.422 288.9L867.464 368.875" stroke="white" stroke-opacity="0.15"/>
<path opacity="0.67" d="M867.465 288.9L947.507 368.875" stroke="white" stroke-opacity="0.15"/>
<path opacity="0.67" d="M1027.55 288.9L947.506 368.875" stroke="white" stroke-opacity="0.15"/>
<path opacity="0.67" d="M1107.59 288.9L1027.55 368.875" stroke="white" stroke-opacity="0.15"/>
<path opacity="0.67" d="M1187.63 288.9L1107.59 368.875" stroke="white" stroke-opacity="0.15"/>
<path opacity="0.67" d="M1187.63 288.9L1267.68 368.875" stroke="white" stroke-opacity="0.15"/>
<path opacity="0.67" d="M1267.68 288.9L1347.72 368.875" stroke="white" stroke-opacity="0.15"/>
<path opacity="0.67" d="M1427.76 288.9L1347.72 368.875" stroke="white" stroke-opacity="0.15"/>
<path opacity="0.67" d="M1507.8 288.9L1427.76 368.875" stroke="white" stroke-opacity="0.15"/>
<path opacity="0.67" d="M1507.8 288.9L1587.84 368.875" stroke="white" stroke-opacity="0.15"/>
<path opacity="0.67" d="M1587.84 288.9L1667.89 368.875" stroke="white" stroke-opacity="0.15"/>
<path opacity="0.58" d="M-13 368.875L67.0422 448.85" stroke="white" stroke-opacity="0.15"/>
<path opacity="0.58" d="M67.043 368.875L147.085 448.85" stroke="white" stroke-opacity="0.15"/>
<path opacity="0.58" d="M227.126 368.875L147.084 448.85" stroke="white" stroke-opacity="0.15"/>
<path opacity="0.58" d="M227.127 368.875L307.169 448.85" stroke="white" stroke-opacity="0.15"/>
<path opacity="0.58" d="M307.168 368.875L387.21 448.85" stroke="white" stroke-opacity="0.15"/>
<path opacity="0.58" d="M387.211 368.875L467.253 448.85" stroke="white" stroke-opacity="0.15"/>
<path opacity="0.58" d="M547.296 368.875L467.254 448.85" stroke="white" stroke-opacity="0.15"/>
<path opacity="0.58" d="M547.295 368.875L627.337 448.85" stroke="white" stroke-opacity="0.15"/>
<path opacity="0.58" d="M627.338 368.875L707.38 448.85" stroke="white" stroke-opacity="0.15"/>
<path opacity="0.58" d="M707.379 368.875L787.421 448.85" stroke="white" stroke-opacity="0.15"/>
<path opacity="0.58" d="M867.464 368.875L787.422 448.85" stroke="white" stroke-opacity="0.15"/>
<path opacity="0.58" d="M947.507 368.875L867.465 448.85" stroke="white" stroke-opacity="0.15"/>
<path opacity="0.58" d="M947.506 368.875L1027.55 448.85" stroke="white" stroke-opacity="0.15"/>
<path opacity="0.58" d="M1107.59 368.875L1027.55 448.85" stroke="white" stroke-opacity="0.15"/>
<path opacity="0.58" d="M1187.63 368.875L1107.59 448.85" stroke="white" stroke-opacity="0.15"/>
<path opacity="0.58" d="M1267.68 368.875L1187.63 448.85" stroke="white" stroke-opacity="0.15"/>
<path opacity="0.58" d="M1267.68 368.875L1347.72 448.85" stroke="white" stroke-opacity="0.15"/>
<path opacity="0.58" d="M1347.72 368.875L1427.76 448.85" stroke="white" stroke-opacity="0.15"/>
<path opacity="0.58" d="M1427.76 368.875L1507.8 448.85" stroke="white" stroke-opacity="0.15"/>
<path opacity="0.58" d="M1587.84 368.875L1507.8 448.85" stroke="white" stroke-opacity="0.15"/>
<path opacity="0.58" d="M1667.89 368.875L1587.84 448.85" stroke="white" stroke-opacity="0.15"/>
</svg>
