<svg width="18" height="20" viewBox="0 0 18 20" fill="none" xmlns="http://www.w3.org/2000/svg">
<path d="M15.875 0H2.125C1.125 0 0.25 0.875 0.25 1.875V18.125C0.25 19.125 1.125 20 2.125 20H15.875C16.875 20 17.75 19.125 17.75 18.125V1.875C17.75 0.875 16.875 0 15.875 0ZM5.25 17C5.25 17.25 5 17.5 4.75 17.5H3.25C3 17.5 2.75 17.25 2.75 17V15.5C2.75 15.25 3 15 3.25 15H4.75C5 15 5.25 15.25 5.25 15.5V17ZM5.25 12C5.25 12.25 5 12.5 4.75 12.5H3.25C3 12.5 2.75 12.25 2.75 12V10.5C2.75 10.25 3 10 3.25 10H4.75C5 10 5.25 10.25 5.25 10.5V12ZM10.25 17C10.25 17.25 10 17.5 9.75 17.5H8.25C8 17.5 7.75 17.25 7.75 17V15.5C7.75 15.25 8 15 8.25 15H9.75C10 15 10.25 15.25 10.25 15.5V17ZM10.25 12C10.25 12.25 10 12.5 9.75 12.5H8.25C8 12.5 7.75 12.25 7.75 12V10.5C7.75 10.25 8 10 8.25 10H9.75C10 10 10.25 10.25 10.25 10.5V12ZM15.25 17C15.25 17.25 15 17.5 14.75 17.5H13.25C13 17.5 12.75 17.25 12.75 17V10.5C12.75 10.25 13 10 13.25 10H14.75C15 10 15.25 10.25 15.25 10.5V17ZM15.25 7C15.25 7.25 15 7.5 14.75 7.5H3.25C3 7.5 2.75 7.25 2.75 7V3C2.75 2.75 3 2.5 3.25 2.5H14.75C15 2.5 15.25 2.75 15.25 3V7Z" fill="white"/>
</svg>
