<svg width="93" height="88" viewBox="0 0 93 88" fill="none" xmlns="http://www.w3.org/2000/svg">
<path d="M23.727 53.7261V66.9542C19.9702 69.1278 16.2133 71.3015 12.3633 73.5372V60.3091C16.1201 58.1355 19.877 55.9618 23.727 53.7572V53.7261Z" stroke="white" stroke-opacity="0.37" stroke-linejoin="round"/>
<path d="M12.3637 60.2783V73.5064C8.54477 71.3017 4.78791 69.1281 1 66.9234V53.6953C4.81896 55.9 8.60687 58.1047 12.3637 60.2473V60.2783Z" stroke="white" stroke-opacity="0.37" stroke-linejoin="round"/>
<path d="M23.7275 53.7261C19.9085 55.9307 16.1206 58.1354 12.3637 60.278C8.60687 58.1044 4.85001 55.9307 1 53.7261C4.81896 51.5214 8.57582 49.3478 12.3637 47.1431L23.7275 53.7261Z" stroke="white" stroke-opacity="0.37" stroke-linejoin="round"/>
<path d="M18.0456 50.4346L6.71289 57.0176" stroke="white" stroke-opacity="0.37" stroke-linejoin="round"/>
<path d="M69.1508 27.3633V40.5914C65.394 42.765 61.6371 44.9386 57.7871 47.1744V33.9463C61.544 31.7727 65.3008 29.599 69.1508 27.3943V27.3633Z" stroke="white" stroke-opacity="0.37" stroke-linejoin="round"/>
<path d="M57.7876 33.9463V47.1744C53.9686 44.9697 50.2117 42.7961 46.4238 40.5914V27.3633C50.2428 29.568 54.0307 31.7727 57.7876 33.9152V33.9463Z" stroke="white" stroke-opacity="0.37" stroke-linejoin="round"/>
<path d="M69.1513 27.3633C65.3323 29.568 61.5444 31.7727 57.7876 33.9152C54.0307 31.7416 50.2738 29.568 46.4238 27.3633C50.2428 25.1586 53.9997 22.985 57.7876 20.7803L69.1513 27.3633Z" stroke="white" stroke-opacity="0.37" stroke-linejoin="round"/>
<path d="M63.4692 24.1025L52.1055 30.6545" stroke="white" stroke-opacity="0.37" stroke-linejoin="round"/>
<path d="M91.8481 27.3633V40.5914C88.0912 42.765 84.3344 44.9386 80.4844 47.1744V33.9463C84.2412 31.7727 87.9981 29.599 91.8481 27.3943V27.3633Z" stroke="white" stroke-opacity="0.37" stroke-linejoin="round"/>
<path d="M80.4848 33.9463V47.1744C76.6659 44.9697 72.909 42.7961 69.1211 40.5914V27.3633C72.9401 29.568 76.728 31.7727 80.4848 33.9152V33.9463Z" stroke="white" stroke-opacity="0.37" stroke-linejoin="round"/>
<path d="M91.8486 27.3633C88.0296 29.568 84.2417 31.7727 80.4848 33.9152C76.728 31.7416 72.9711 29.568 69.1211 27.3633C72.9401 25.1586 76.6969 22.985 80.4848 20.7803L91.8486 27.3633Z" stroke="white" stroke-opacity="0.37" stroke-linejoin="round"/>
<path d="M86.1647 24.1025L74.832 30.6545" stroke="white" stroke-opacity="0.37" stroke-linejoin="round"/>
<path d="M80.4848 7.58301V20.8111C76.728 22.9848 72.9711 25.1584 69.1211 27.3941V14.166C72.878 11.9924 76.6348 9.81875 80.4848 7.61407V7.58301Z" stroke="white" stroke-opacity="0.37" stroke-linejoin="round"/>
<path d="M69.1508 14.1347V27.3629C65.3319 25.1582 61.575 22.9845 57.7871 20.7798V7.55176C61.6061 9.75644 65.394 11.9611 69.1508 14.1037V14.1347Z" stroke="white" stroke-opacity="0.37" stroke-linejoin="round"/>
<path d="M80.4853 7.58299C76.6663 9.78767 72.8784 11.9924 69.1216 14.1349C65.3647 11.9613 61.6078 9.78767 57.7578 7.58299C61.5768 5.3783 65.3336 3.20468 69.1216 1L80.4853 7.58299Z" stroke="white" stroke-opacity="0.37" stroke-linejoin="round"/>
<path d="M74.8325 4.2915L63.4688 10.8435" stroke="white" stroke-opacity="0.37" stroke-linejoin="round"/>
<path d="M69.1508 66.9541V80.1822C65.394 82.3558 61.6371 84.5294 57.7871 86.7652V73.5371C61.544 71.3635 65.3008 69.1898 69.1508 66.9851V66.9541Z" stroke="white" stroke-opacity="0.37" stroke-linejoin="round"/>
<path d="M57.7876 73.5064V86.7345C53.9686 84.5298 50.2117 82.3562 46.4238 80.1515V66.9233C50.2428 69.128 54.0307 71.3327 57.7876 73.4753V73.5064Z" stroke="white" stroke-opacity="0.37" stroke-linejoin="round"/>
<path d="M69.1513 66.9541C65.3323 69.1588 61.5444 71.3635 57.7876 73.5061C54.0307 71.3324 50.2738 69.1588 46.4238 66.9541C50.2428 64.7494 53.9997 62.5758 57.7876 60.3711L69.1513 66.9541Z" stroke="white" stroke-opacity="0.37" stroke-linejoin="round"/>
<path d="M63.4692 63.6626L52.1055 70.2145" stroke="white" stroke-opacity="0.37" stroke-linejoin="round"/>
<path d="M80.4848 47.1743V60.4025C76.728 62.5761 72.9711 64.7497 69.1211 66.9854V53.7573C72.878 51.5837 76.6348 49.4101 80.4848 47.2054V47.1743Z" stroke="white" stroke-opacity="0.37" stroke-linejoin="round"/>
<path d="M69.1508 53.7261V66.9542C65.3319 64.7495 61.575 62.5758 57.7871 60.3712V47.1431C61.6061 49.3478 65.394 51.5524 69.1508 53.695V53.7261Z" stroke="white" stroke-opacity="0.37" stroke-linejoin="round"/>
<path d="M80.4853 47.1743C76.6663 49.379 72.8784 51.5837 69.1216 53.7262C65.3647 51.5526 61.6078 49.379 57.7578 47.1743C61.5768 44.9696 65.3336 42.796 69.1216 40.5913L80.4853 47.1743Z" stroke="white" stroke-opacity="0.37" stroke-linejoin="round"/>
<path d="M74.8325 43.8828L63.4688 50.4348" stroke="white" stroke-opacity="0.37" stroke-linejoin="round"/>
<path d="M35.0903 47.1743V60.4025C31.3334 62.5761 27.5766 64.7497 23.7266 66.9854V53.7573C27.4834 51.5837 31.2403 49.4101 35.0903 47.2054V47.1743Z" stroke="white" stroke-opacity="0.37" stroke-linejoin="round"/>
<path d="M35.0907 47.1743C31.2718 49.379 27.4839 51.5837 23.727 53.7262C19.9702 51.5526 16.2133 49.379 12.3633 47.1743C16.1822 44.9696 19.9391 42.796 23.727 40.5913L35.0907 47.1743Z" stroke="white" stroke-opacity="0.37" stroke-linejoin="round"/>
<path d="M29.4087 43.8828L18.0449 50.4348" stroke="white" stroke-opacity="0.37" stroke-linejoin="round"/>
<path d="M57.7876 47.1743V60.4025C54.0307 62.5761 50.2738 64.7497 46.4238 66.9854V53.7573C50.1807 51.5837 53.9376 49.4101 57.7876 47.2054V47.1743Z" stroke="white" stroke-opacity="0.37" stroke-linejoin="round"/>
<path d="M46.4243 53.7261V66.9542C42.6053 64.7495 38.8485 62.5758 35.0605 60.3712V47.1431C38.8795 49.3478 42.6674 51.5524 46.4243 53.695V53.7261Z" stroke="white" stroke-opacity="0.37" stroke-linejoin="round"/>
<path d="M57.788 47.1743C53.9691 49.379 50.1811 51.5837 46.4243 53.7262C42.6674 51.5526 38.9106 49.379 35.0605 47.1743C38.8795 44.9696 42.6364 42.796 46.4243 40.5913L57.788 47.1743Z" stroke="white" stroke-opacity="0.37" stroke-linejoin="round"/>
<path d="M52.1061 43.8828L40.7734 50.4348" stroke="white" stroke-opacity="0.37" stroke-linejoin="round"/>
<path d="M46.4243 27.3633V40.5914C42.6674 42.765 38.9106 44.9386 35.0605 47.1744V33.9463C38.8174 31.7727 42.5743 29.599 46.4243 27.3943V27.3633Z" stroke="white" stroke-opacity="0.37" stroke-linejoin="round"/>
<path d="M35.0903 33.9463V47.1744C31.2713 44.9697 27.5145 42.7961 23.7266 40.5914V27.3633C27.5455 29.568 31.3334 31.7727 35.0903 33.9152V33.9463Z" stroke="white" stroke-opacity="0.37" stroke-linejoin="round"/>
<path d="M46.4228 27.3633C42.6038 29.568 38.8159 31.7727 35.059 33.9152C31.3022 31.7416 27.5453 29.568 23.6953 27.3633C27.5143 25.1586 31.2711 22.985 35.059 20.7803L46.4228 27.3633Z" stroke="white" stroke-opacity="0.37" stroke-linejoin="round"/>
<path d="M40.7739 24.1025L29.4102 30.6545" stroke="white" stroke-opacity="0.37" stroke-linejoin="round"/>
<path d="M46.4243 66.9541V80.1822C42.6674 82.3558 38.9106 84.5294 35.0605 86.7652V73.5371C38.8174 71.3635 42.5743 69.1898 46.4243 66.9851V66.9541Z" stroke="white" stroke-opacity="0.37" stroke-linejoin="round"/>
<path d="M35.0903 73.5064V86.7345C31.2713 84.5298 27.5145 82.3562 23.7266 80.1515V66.9233C27.5455 69.128 31.3334 71.3327 35.0903 73.4753V73.5064Z" stroke="white" stroke-opacity="0.37" stroke-linejoin="round"/>
<path d="M46.4228 66.9541C42.6038 69.1588 38.8159 71.3635 35.059 73.5061C31.3022 71.3324 27.5453 69.1588 23.6953 66.9541C27.5143 64.7494 31.2711 62.5758 35.059 60.3711L46.4228 66.9541Z" stroke="white" stroke-opacity="0.37" stroke-linejoin="round"/>
<path d="M40.7739 63.6626L29.4102 70.2145" stroke="white" stroke-opacity="0.37" stroke-linejoin="round"/>
</svg>
