<svg width="291" height="86" viewBox="0 0 291 86" fill="none" xmlns="http://www.w3.org/2000/svg">
<path d="M191.709 42.5755C199.833 42.5755 204.84 32.9302 204.84 22.1314V9.76178C204.84 7.06207 201.404 1 191.709 1" stroke="#ED9121" stroke-miterlimit="10"/>
<path d="M204.742 24.8062C204.742 24.8062 201.429 18.5723 191.71 18.5723" stroke="#ED9121" stroke-miterlimit="10"/>
<path d="M204.742 18.5976C204.742 18.5976 200.472 15.3579 191.71 15.3579" stroke="#ED9121" stroke-miterlimit="10"/>
<path d="M196.298 1.51514C196.764 3.45402 197.157 5.63833 197.452 8.01898C197.795 10.915 197.918 13.5902 197.893 15.9463" stroke="#ED9121" stroke-miterlimit="10"/>
<path d="M200.52 37.6421C200.103 38.5256 199.833 41.1517 200.986 44.0723C202.606 48.1219 209.993 49.2508 214.288 49.9135C222.142 51.1652 224.302 55.9756 225.185 59.2643C225.971 62.2094 226.02 66.848 225.946 69.9404C225.897 71.7075 224.474 73.1064 222.707 73.1064H191.733" stroke="#ED9121" stroke-miterlimit="10"/>
<path d="M202.385 46.2568C201.354 46.9931 199.93 47.8276 198.09 48.4902C195.513 49.4229 193.378 49.5947 191.709 49.5947" stroke="#ED9121" stroke-miterlimit="10"/>
<path d="M216.668 73.1065V61.326C216.668 60.786 216.226 60.3442 215.686 60.3442H191.708" stroke="#ED9121" stroke-miterlimit="10"/>
<path d="M212.424 49.9136V60.3688" stroke="#ED9121" stroke-miterlimit="10"/>
<path d="M206.189 60.3692V48.2451" stroke="#ED9121" stroke-miterlimit="10"/>
<path d="M203.759 30.5988C203.759 30.5988 207.097 29.7644 207.809 25.4694C208.202 23.0397 207.048 21.3462 204.864 21.3462" stroke="#ED9121" stroke-miterlimit="10"/>
<path d="M211.048 64.2471H211.073C212.022 64.2471 212.791 65.0163 212.791 65.9651V65.9896C212.791 66.9384 212.022 67.7076 211.073 67.7076H211.048C210.1 67.7076 209.331 66.9384 209.331 65.9896V65.9651C209.331 65.0163 210.1 64.2471 211.048 64.2471Z" stroke="#ED9121" stroke-miterlimit="10"/>
<path d="M191.709 42.5755C183.585 42.5755 178.579 32.9302 178.579 22.1314C178.579 22.1314 178.579 12.0933 178.579 9.76178C178.579 7.43021 182.015 1 191.709 1" stroke="#ED9121" stroke-miterlimit="10"/>
<path d="M178.677 24.8062C178.677 24.8062 181.99 18.5723 191.709 18.5723" stroke="#ED9121" stroke-miterlimit="10"/>
<path d="M178.677 18.5976C178.677 18.5976 182.947 15.3579 191.709 15.3579" stroke="#ED9121" stroke-miterlimit="10"/>
<path d="M187.145 1.51514C186.678 3.45402 186.286 5.63833 185.991 8.01898C185.647 10.915 185.525 13.5902 185.549 15.9463" stroke="#ED9121" stroke-miterlimit="10"/>
<path d="M182.897 37.6421C183.314 38.5256 183.584 41.1517 182.431 44.0723C180.811 48.1219 173.424 49.2508 169.129 49.9135C161.275 51.1652 159.115 55.9756 158.232 59.2643C157.446 62.2094 157.397 66.848 157.471 69.9404C157.52 71.7075 158.943 73.1064 160.711 73.1064H191.684" stroke="#ED9121" stroke-miterlimit="10"/>
<path d="M181.058 46.2568C182.089 46.9931 183.513 47.8276 185.353 48.4902C187.93 49.4229 190.065 49.5947 191.734 49.5947" stroke="#ED9121" stroke-miterlimit="10"/>
<path d="M166.774 73.1065V61.326C166.774 60.786 167.216 60.3442 167.756 60.3442H191.734" stroke="#ED9121" stroke-miterlimit="10"/>
<path d="M170.994 49.9136V60.3688" stroke="#ED9121" stroke-miterlimit="10"/>
<path d="M177.229 60.3692V48.2451" stroke="#ED9121" stroke-miterlimit="10"/>
<path d="M179.658 30.5988C179.658 30.5988 176.32 29.7644 175.609 25.4694C175.216 23.0397 176.369 21.3462 178.554 21.3462" stroke="#ED9121" stroke-miterlimit="10"/>
<path d="M172.393 67.6826H172.368C171.42 67.6826 170.65 66.9134 170.65 65.9646V65.9401C170.65 64.9912 171.42 64.2221 172.368 64.2221H172.393C173.342 64.2221 174.111 64.9912 174.111 65.9401V65.9646C174.111 66.9134 173.342 67.6826 172.393 67.6826Z" stroke="#ED9121" stroke-miterlimit="10"/>
<path d="M108.02 52.6872C108.02 41.4221 98.8896 32.2676 87.5999 32.2676H-0.999615" stroke="#ED9121" stroke-miterlimit="10"/>
<path d="M108.02 52.6875C108.02 63.9526 117.15 73.1071 128.439 73.1071H266.223" stroke="#ED9121" stroke-miterlimit="10"/>
<path d="M278.101 85.0101C271.527 85.0101 266.197 79.6808 266.197 73.1068C266.197 66.5329 271.527 61.2036 278.101 61.2036C284.675 61.2036 290.004 66.5329 290.004 73.1068C290.004 79.6808 284.675 85.0101 278.101 85.0101Z" stroke="#ED9121" stroke-miterlimit="10"/>
</svg>
