<svg width="21" height="21" viewBox="0 0 21 21" fill="none" xmlns="http://www.w3.org/2000/svg">
<path d="M18.375 8.53125C18.201 8.53125 18.034 8.60039 17.911 8.72346C17.7879 8.84653 17.7188 9.01345 17.7188 9.1875V14.4375C17.7188 14.6115 17.6496 14.7785 17.5265 14.9015C17.4035 15.0246 17.2365 15.0938 17.0625 15.0938H3.9375C3.76345 15.0938 3.59653 15.0246 3.47346 14.9015C3.35039 14.7785 3.28125 14.6115 3.28125 14.4375V9.1875C3.28125 9.01345 3.21211 8.84653 3.08904 8.72346C2.96597 8.60039 2.79905 8.53125 2.625 8.53125C2.45095 8.53125 2.28403 8.60039 2.16096 8.72346C2.03789 8.84653 1.96875 9.01345 1.96875 9.1875V14.4375C1.96921 14.9595 2.17693 15.4599 2.54625 15.8288C2.91511 16.1981 3.41553 16.4058 3.9375 16.4062H17.0625C17.5845 16.4058 18.0849 16.1981 18.4538 15.8288C18.8231 15.4599 19.0308 14.9595 19.0312 14.4375V9.1875C19.0312 9.01345 18.9621 8.84653 18.839 8.72346C18.716 8.60039 18.549 8.53125 18.375 8.53125Z" fill="white"/>
<path d="M10.1062 12.3375C10.2198 12.4227 10.3579 12.4688 10.4999 12.4688C10.6419 12.4688 10.7801 12.4227 10.8937 12.3375L18.644 6.52312C18.7649 6.43195 18.8505 6.30177 18.8864 6.15465C18.9223 6.00754 18.9062 5.85254 18.8409 5.71594C18.7431 5.51402 18.6123 5.32991 18.4537 5.17125C18.0848 4.80193 17.5844 4.59421 17.0624 4.59375H3.93742C3.41545 4.59421 2.91503 4.80193 2.54617 5.17125C2.38759 5.32991 2.25672 5.51402 2.15899 5.71594C2.09363 5.85254 2.07753 6.00754 2.11342 6.15465C2.1493 6.30177 2.23495 6.43195 2.35586 6.52312L10.1062 12.3375ZM3.93742 5.90625H17.0624C17.1233 5.89666 17.1853 5.89666 17.2462 5.90625L10.4999 10.9922L3.75367 5.90625C3.81455 5.89666 3.87655 5.89666 3.93742 5.90625Z" fill="white"/>
</svg>
