<svg width="17" height="18" viewBox="0 0 17 18" fill="none" xmlns="http://www.w3.org/2000/svg">
<g clip-path="url(#clip0_452_1165)">
<path d="M10.5852 3.15625C11.4863 3.39808 12.3079 3.87268 12.9677 4.53239C13.6274 5.19211 14.102 6.01375 14.3438 6.91484" stroke="white" stroke-width="1.5" stroke-linecap="round" stroke-linejoin="round"/>
<path d="M10.0339 5.20801C10.5759 5.35194 11.0702 5.63658 11.4667 6.03309C11.8632 6.42959 12.1478 6.92387 12.2917 7.46582" stroke="white" stroke-width="1.5" stroke-linecap="round" stroke-linejoin="round"/>
<path d="M6.14258 8.78767C6.68925 9.91659 7.60211 10.8271 8.73242 11.3709C8.8158 11.4104 8.90802 11.4274 9.00001 11.4205C9.09199 11.4135 9.18057 11.3827 9.25703 11.331L10.9172 10.222C10.9905 10.1723 11.0753 10.1419 11.1635 10.1338C11.2518 10.1257 11.3407 10.1401 11.4219 10.1756L14.5297 11.5103C14.6359 11.5545 14.7246 11.6324 14.7822 11.732C14.8398 11.8316 14.8631 11.9474 14.8484 12.0615C14.7499 12.8303 14.3747 13.5369 13.7929 14.049C13.2111 14.5612 12.4626 14.8437 11.6875 14.8439C9.29226 14.8439 6.99513 13.8924 5.30144 12.1987C3.60775 10.505 2.65625 8.20791 2.65625 5.81267C2.65642 5.03758 2.93902 4.2891 3.45115 3.7073C3.96328 3.1255 4.66986 2.75024 5.43867 2.65174C5.55278 2.63708 5.66855 2.66034 5.76814 2.71794C5.86774 2.77553 5.94564 2.86427 5.98984 2.97049L7.32461 6.08494C7.35932 6.16486 7.37384 6.25209 7.36689 6.33894C7.35994 6.42579 7.33174 6.5096 7.28477 6.58299L6.17578 8.26971C6.12641 8.34599 6.09743 8.43367 6.09162 8.52436C6.0858 8.61504 6.10335 8.70571 6.14258 8.78767Z" stroke="white" stroke-width="1.5" stroke-linecap="round" stroke-linejoin="round"/>
</g>
<defs>
<clipPath id="clip0_452_1165">
<rect width="17" height="17" fill="white" transform="translate(0 0.5)"/>
</clipPath>
</defs>
</svg>
